<svg width="19" height="8" viewBox="0 0 19 8" fill="none" xmlns="http://www.w3.org/2000/svg">
<path fill-rule="evenodd" clip-rule="evenodd" d="M14.1469 6.85457C14.1003 6.80813 14.0634 6.75295 14.0382 6.6922C14.013 6.63146 14 6.56634 14 6.50057C14 6.4348 14.013 6.36968 14.0382 6.30894C14.0634 6.24819 14.1003 6.19302 14.1469 6.14657L16.7939 3.50057L14.1469 0.854571C14.053 0.760684 14.0003 0.633347 14.0003 0.500571C14.0003 0.367795 14.053 0.240458 14.1469 0.146571C14.2408 0.0526843 14.3681 -6.00976e-05 14.5009 -6.01034e-05C14.6337 -6.01092e-05 14.761 0.0526843 14.8549 0.146571L17.8549 3.14657C17.9015 3.19302 17.9384 3.24819 17.9636 3.30894C17.9888 3.36968 18.0018 3.4348 18.0018 3.50057C18.0018 3.56634 17.9888 3.63146 17.9636 3.6922C17.9384 3.75295 17.9015 3.80813 17.8549 3.85457L14.8549 6.85457C14.8084 6.90113 14.7533 6.93808 14.6925 6.96328C14.6318 6.98849 14.5667 7.00146 14.5009 7.00146C14.4351 7.00146 14.37 6.98849 14.3093 6.96328C14.2485 6.93808 14.1933 6.90113 14.1469 6.85457Z" fill="#7C7C7C"/>
<path fill-rule="evenodd" clip-rule="evenodd" d="M-2.18557e-08 3.5C-2.76522e-08 3.36739 0.0895534 3.24021 0.248959 3.14645C0.408365 3.05268 0.624566 3 0.85 3L16.15 3C16.3754 3 16.5916 3.05268 16.751 3.14645C16.9104 3.24021 17 3.36739 17 3.5C17 3.63261 16.9104 3.75978 16.751 3.85355C16.5916 3.94732 16.3754 4 16.15 4L0.85 4C0.624566 4 0.408365 3.94732 0.248959 3.85355C0.0895535 3.75979 -1.60592e-08 3.63261 -2.18557e-08 3.5Z" fill="#7C7C7C"/>
</svg>
