<svg width="30" height="28" viewBox="0 0 30 28" fill="none" xmlns="http://www.w3.org/2000/svg">
<g clip-path="url(#clip0)">
<path d="M5.16137 4.93793L5.1675 5.00622H5.23607H28.6924C29.4452 5.00622 29.9972 5.71474 29.8149 6.44388L27.3115 16.4569C27.1888 16.9475 26.7617 17.3017 26.2569 17.3313L6.56715 18.4885L6.46061 18.4947L6.50259 18.5929C6.86612 19.4424 7.70836 20.0256 8.675 20.0256H22.4344C24.4526 20.0256 26.0947 21.6677 26.0947 23.6859C26.0947 25.7041 24.4526 27.3462 22.4344 27.3462C19.9054 27.3462 18.1275 24.8233 18.9926 22.4403L19.0291 22.3397H18.9221H12.1789H12.0719L12.1084 22.4403C12.9747 24.8264 11.193 27.3462 8.66667 27.3462C5.62316 27.3462 3.91342 23.8233 5.78441 21.434L5.83039 21.3753L5.77193 21.329C4.72911 20.5029 4.12439 19.2871 4.02563 18.1697L2.80925 4.61744L2.62902 2.60948L2.61138 2.41297L2.60912 2.38781L2.60872 2.38334L2.60858 2.38233L2.60246 2.3141H2.53389H1.15705C0.518027 2.3141 0 1.79607 0 1.15705C0 0.518027 0.518027 0 1.15705 0H3.66028C4.25918 0 4.75914 0.457089 4.8127 1.05363L5.16137 4.93793ZM2.72349 4.501C2.76623 4.49578 2.79518 4.46102 2.79518 4.46102L2.79502 4.45926L2.79435 4.45188L2.72349 4.501ZM7.32055 23.6859C7.32055 24.4283 7.92439 25.0321 8.66667 25.0321C9.40901 25.0321 10.0129 24.4283 10.0129 23.6859C10.0129 22.9436 9.40901 22.3397 8.66667 22.3397C7.92439 22.3397 7.32055 22.9436 7.32055 23.6859ZM21.0882 23.6859C21.0882 24.4283 21.692 25.0321 22.4343 25.0321C23.1767 25.0321 23.7805 24.4283 23.7805 23.6859C23.7805 22.9436 23.1767 22.3397 22.4343 22.3397C21.692 22.3397 21.0882 22.9436 21.0882 23.6859Z" fill="#824C4F"/>
<path d="M2.6458 4.4743L2.65985 4.63084M5.16137 4.93793L5.1675 5.00622H5.23607H28.6924C29.4452 5.00622 29.9972 5.71474 29.8149 6.44388L27.3115 16.4569C27.1888 16.9475 26.7617 17.3017 26.2569 17.3313L6.56715 18.4885L6.46061 18.4947L6.50259 18.5929C6.86612 19.4424 7.70836 20.0256 8.675 20.0256H22.4344C24.4526 20.0256 26.0947 21.6677 26.0947 23.6859C26.0947 25.7041 24.4526 27.3462 22.4344 27.3462C19.9054 27.3462 18.1275 24.8233 18.9926 22.4403L19.0291 22.3397H18.9221H12.1789H12.0719L12.1084 22.4403C12.9747 24.8264 11.193 27.3462 8.66667 27.3462C5.62316 27.3462 3.91342 23.8233 5.78441 21.434L5.83039 21.3753L5.77193 21.329C4.72911 20.5029 4.12439 19.2871 4.02563 18.1697L2.80925 4.61744L2.62902 2.60948L2.61138 2.41297L2.60912 2.38781L2.60872 2.38334L2.60858 2.38233L2.60246 2.3141H2.53389H1.15705C0.518027 2.3141 0 1.79607 0 1.15705C0 0.518027 0.518027 0 1.15705 0H3.66028C4.25918 0 4.75914 0.457089 4.8127 1.05363L5.16137 4.93793ZM2.72349 4.501C2.76623 4.49578 2.79518 4.46102 2.79518 4.46102L2.79502 4.45926L2.79435 4.45188L2.72349 4.501ZM7.32055 23.6859C7.32055 24.4283 7.92439 25.0321 8.66667 25.0321C9.40901 25.0321 10.0129 24.4283 10.0129 23.6859C10.0129 22.9436 9.40901 22.3397 8.66667 22.3397C7.92439 22.3397 7.32055 22.9436 7.32055 23.6859ZM21.0882 23.6859C21.0882 24.4283 21.692 25.0321 22.4343 25.0321C23.1767 25.0321 23.7805 24.4283 23.7805 23.6859C23.7805 22.9436 23.1767 22.3397 22.4343 22.3397C21.692 22.3397 21.0882 22.9436 21.0882 23.6859Z" stroke="white" stroke-width="0.15"/>
</g>
<defs>
<clipPath id="clip0">
<rect width="30" height="28" fill="white"/>
</clipPath>
</defs>
</svg>
