<svg width="26" height="23" viewBox="0 0 26 23" fill="none" xmlns="http://www.w3.org/2000/svg">
<path d="M24.9317 4.1876H4.60292L4.30074 0.938468C4.25132 0.407129 3.78994 0 3.23724 0H1.06777C0.478058 0 0 0.461407 0 1.03058C0 1.59976 0.478058 2.06117 1.06777 2.06117H2.26104C2.91314 9.07315 1.22779 -9.05023 3.48913 15.2668C3.57628 16.2186 4.1091 17.2514 5.02698 17.9531C3.37208 19.9929 4.88415 23 7.57612 23C9.81041 23 11.3863 20.8492 10.6201 18.8122H16.4642C15.6989 20.8466 17.2714 23 19.5081 23C21.2932 23 22.7454 21.5984 22.7454 19.8755C22.7454 18.1527 21.2932 16.751 19.5081 16.751H7.58334C6.77223 16.751 6.06542 16.2787 5.76034 15.5906L22.8248 14.6226C23.2907 14.5962 23.6848 14.2808 23.7981 13.8438L25.9677 5.46812C26.1359 4.81866 25.6265 4.1876 24.9317 4.1876V4.1876ZM7.57612 20.9388C6.96871 20.9388 6.47448 20.4618 6.47448 19.8755C6.47448 19.2892 6.96871 18.8122 7.57612 18.8122C8.18358 18.8122 8.67781 19.2892 8.67781 19.8755C8.67781 20.4618 8.18358 20.9388 7.57612 20.9388ZM19.5081 20.9388C18.9006 20.9388 18.4064 20.4618 18.4064 19.8755C18.4064 19.2892 18.9006 18.8122 19.5081 18.8122C20.1156 18.8122 20.6098 19.2892 20.6098 19.8755C20.6098 20.4618 20.1156 20.9388 19.5081 20.9388ZM21.9165 12.6095L5.47291 13.5421L4.79461 6.24872H23.5642L21.9165 12.6095Z" fill="#552225"/>
</svg>
