<svg width="26" height="24" viewBox="0 0 26 24" fill="none" xmlns="http://www.w3.org/2000/svg">
<path d="M25.7739 4.74936C25.5715 4.4902 25.261 4.33873 24.9322 4.33873H4.60301L4.30082 0.972337C4.2514 0.421822 3.79001 0 3.2373 0H1.06779C0.478067 0 0 0.478058 0 1.06778C0 1.65749 0.478067 2.13555 1.06779 2.13555H2.26108L3.43148 15.1746C3.43174 15.1899 3.43098 15.205 3.43184 15.2205C3.43423 15.2615 3.43957 15.3015 3.44638 15.341L3.4892 15.8177C3.49001 15.8267 3.49092 15.8357 3.49199 15.8446C3.62176 16.9688 4.19628 17.9429 5.02707 18.601C4.5966 19.1508 4.33901 19.842 4.33901 20.5928C4.33901 22.3778 5.79126 23.83 7.57625 23.83C9.3613 23.83 10.8136 22.3778 10.8136 20.5928C10.8136 20.2061 10.7452 19.8351 10.6203 19.4911H16.4645C16.3395 19.8351 16.2712 20.2061 16.2712 20.5928C16.2712 22.3778 17.7235 23.83 19.5085 23.83C21.2935 23.83 22.7458 22.3778 22.7458 20.5928C22.7458 18.8077 21.2935 17.3555 19.5085 17.3555H7.58348C6.77236 17.3555 6.06553 16.8662 5.76045 16.1532L22.8252 15.1503C23.2911 15.123 23.6853 14.7961 23.7985 14.3434L25.9681 5.66541C26.0478 5.3465 25.9762 5.00858 25.7739 4.74936Z" fill="#824C4F"/>
</svg>
