<svg width="40" height="40" viewBox="0 0 40 40" fill="none" xmlns="http://www.w3.org/2000/svg">
<path d="M14.8669 13.2967L20.0001 18.4294L25.1333 13.3122C25.2344 13.2094 25.3557 13.1287 25.4896 13.0751C25.6234 13.0216 25.767 12.9964 25.9111 13.0012C26.1939 13.0195 26.4603 13.1401 26.6607 13.3404C26.861 13.5408 26.9816 13.8072 26.9999 14.0899C27.0013 14.2289 26.9745 14.3668 26.921 14.4951C26.8675 14.6235 26.7885 14.7396 26.6888 14.8365L21.5401 20.0003L26.6888 25.1641C26.8911 25.3601 27.003 25.6307 26.9999 25.9107C26.9816 26.1934 26.861 26.4598 26.6607 26.6602C26.4603 26.8605 26.1939 26.9811 25.9111 26.9994C25.767 27.0042 25.6234 26.979 25.4896 26.9255C25.3557 26.8719 25.2344 26.7912 25.1333 26.6884L20.0001 21.5712L14.8825 26.6884C14.7814 26.7912 14.6601 26.8719 14.5262 26.9255C14.3924 26.979 14.2488 27.0042 14.1047 26.9994C13.8167 26.9844 13.5444 26.8633 13.3404 26.6593C13.1365 26.4554 13.0153 26.1831 13.0003 25.8951C12.9989 25.7561 13.0258 25.6182 13.0792 25.4899C13.1327 25.3616 13.2117 25.2454 13.3114 25.1486L18.4602 20.0003L13.2959 14.8365C13.199 14.7383 13.1228 14.6216 13.0721 14.4933C13.0213 14.365 12.9969 14.2278 13.0003 14.0899C13.0186 13.8072 13.1392 13.5408 13.3396 13.3404C13.54 13.1401 13.8064 13.0195 14.0892 13.0012C14.2322 12.9944 14.375 13.0171 14.5088 13.068C14.6426 13.1188 14.7645 13.1967 14.8669 13.2967Z" fill="#777777"/>
</svg>
