<svg width="25" height="25" viewBox="0 0 25 25" fill="none" xmlns="http://www.w3.org/2000/svg">
<path d="M0 20.084V24.3056C0 24.6945 0.305514 25 0.69435 25H4.916C5.09653 25 5.27706 24.9306 5.40204 24.7917L20.5667 9.64097L15.359 4.43335L0.208305 19.5841C0.0694351 19.7229 0 19.8896 0 20.084ZM24.5939 5.61374C24.7226 5.48527 24.8248 5.33267 24.8944 5.16467C24.9641 4.99668 25 4.81659 25 4.63471C25 4.45283 24.9641 4.27274 24.8944 4.10475C24.8248 3.93675 24.7226 3.78415 24.5939 3.65568L21.3443 0.406117C21.2159 0.27738 21.0632 0.175244 20.8953 0.105557C20.7273 0.0358701 20.5472 0 20.3653 0C20.1834 0 20.0033 0.0358701 19.8353 0.105557C19.6673 0.175244 19.5147 0.27738 19.3863 0.406117L16.8449 2.94744L22.0526 8.15507L24.5939 5.61374Z" fill="white"/>
</svg>
