<svg width="45" height="45" viewBox="0 0 45 45" fill="none" xmlns="http://www.w3.org/2000/svg">
<circle cx="22.5" cy="22.5" r="22.5" fill="#404040"/>
<path d="M22.4966 16.0862C18.9474 16.0862 16.0831 18.9506 16.0831 22.4998C16.0831 26.049 18.9474 28.9134 22.4966 28.9134C26.0458 28.9134 28.9102 26.049 28.9102 22.4998C28.9102 18.9506 26.0458 16.0862 22.4966 16.0862ZM22.4966 26.6681C20.2014 26.6681 18.3283 24.795 18.3283 22.4998C18.3283 20.2045 20.2014 18.3314 22.4966 18.3314C24.7919 18.3314 26.665 20.2045 26.665 22.4998C26.665 24.795 24.7919 26.6681 22.4966 26.6681ZM29.1729 14.3288C28.3442 14.3288 27.675 14.998 27.675 15.8266C27.675 16.6553 28.3442 17.3245 29.1729 17.3245C30.0016 17.3245 30.6708 16.6584 30.6708 15.8266C30.671 15.6299 30.6324 15.435 30.5572 15.2531C30.4821 15.0713 30.3717 14.9061 30.2326 14.7669C30.0935 14.6278 29.9282 14.5175 29.7464 14.4423C29.5646 14.3671 29.3697 14.3285 29.1729 14.3288ZM34.9986 22.4998C34.9986 20.7736 35.0142 19.0631 34.9173 17.3401C34.8204 15.3388 34.3638 13.5626 32.9004 12.0992C31.4338 10.6326 29.6607 10.1792 27.6594 10.0822C25.9333 9.98529 24.2228 10.0009 22.4998 10.0009C20.7736 10.0009 19.0631 9.98529 17.3401 10.0822C15.3388 10.1792 13.5626 10.6357 12.0992 12.0992C10.6326 13.5658 10.1792 15.3388 10.0822 17.3401C9.98529 19.0663 10.0009 20.7768 10.0009 22.4998C10.0009 24.2228 9.98529 25.9364 10.0822 27.6594C10.1792 29.6607 10.6357 31.4369 12.0992 32.9003C13.5658 34.3669 15.3388 34.8204 17.3401 34.9173C19.0663 35.0142 20.7768 34.9986 22.4998 34.9986C24.2259 34.9986 25.9364 35.0142 27.6594 34.9173C29.6607 34.8204 31.4369 34.3638 32.9004 32.9003C34.3669 31.4338 34.8204 29.6607 34.9173 27.6594C35.0174 25.9364 34.9986 24.2259 34.9986 22.4998ZM32.2468 29.8734C32.0185 30.4425 31.7433 30.8678 31.3024 31.3056C30.8615 31.7465 30.4394 32.0216 29.8702 32.2499C28.2254 32.9035 24.3197 32.7565 22.4966 32.7565C20.6736 32.7565 16.7647 32.9035 15.1199 32.253C14.5508 32.0248 14.1255 31.7496 13.6877 31.3087C13.2468 30.8678 12.9716 30.4456 12.7434 29.8765C12.0929 28.2285 12.2399 24.3228 12.2399 22.4998C12.2399 20.6767 12.0929 16.7679 12.7434 15.123C12.9716 14.5539 13.2468 14.1286 13.6877 13.6909C14.1286 13.2531 14.5508 12.9748 15.1199 12.7465C16.7647 12.0961 20.6736 12.243 22.4966 12.243C24.3197 12.243 28.2285 12.0961 29.8734 12.7465C30.4425 12.9748 30.8678 13.2499 31.3056 13.6909C31.7465 14.1318 32.0216 14.5539 32.2499 15.123C32.9004 16.7679 32.7534 20.6767 32.7534 22.4998C32.7534 24.3228 32.9004 28.2285 32.2468 29.8734Z" fill="white"/>
</svg>
