<svg width="27" height="20" viewBox="0 0 27 20" fill="none" xmlns="http://www.w3.org/2000/svg">
<path d="M17.5166 12.1421L22.9861 17.4H4.10202L9.39858 12.141L9.47256 12.0675L9.3961 11.9967L8.2711 10.9542L8.20072 10.8889L8.13265 10.9566L2.6625 16.3897V3.87384L12.2044 12.9898L12.2044 12.9898C12.5162 13.2874 12.9371 13.4537 13.375 13.4537C13.8129 13.4537 14.2338 13.2874 14.5456 12.9898L14.5456 12.9898L24.3375 3.64123V16.2979L18.7568 10.9404L18.6875 10.8739L18.6182 10.9404L17.5167 11.9979L17.4416 12.07L17.5166 12.1421ZM24.4375 0.9H2.5625C2.12286 0.9 1.70046 1.06762 1.38839 1.3672C1.07619 1.66692 0.9 2.07431 0.9 2.5V17.5C0.9 17.9257 1.07619 18.3331 1.38839 18.6328C1.70046 18.9324 2.12286 19.1 2.5625 19.1H24.4375C24.8771 19.1 25.2995 18.9324 25.6116 18.6328C25.9238 18.3331 26.1 17.9257 26.1 17.5V2.5C26.1 2.07431 25.9238 1.66692 25.6116 1.3672C25.2995 1.06762 24.8771 0.9 24.4375 0.9ZM13.375 11.7142L3.83537 2.6H22.9223L13.375 11.7142Z" fill="#552225" stroke="#552225" stroke-width="0.2"/>
</svg>
