<svg width="37" height="30" viewBox="0 0 37 30" fill="none" xmlns="http://www.w3.org/2000/svg">
<path d="M9.50402 26.2253V24.7304C9.51273 24.6047 9.49456 24.4786 9.45074 24.3604C9.40692 24.2423 9.33844 24.1348 9.24987 24.0452C9.1613 23.9557 9.05468 23.886 8.9371 23.8409C8.81952 23.7958 8.69368 23.7763 8.56798 23.7837C8.40344 23.7729 8.23902 23.8065 8.09188 23.881C7.94475 23.9555 7.8203 24.0681 7.73152 24.2072C7.65059 24.0723 7.5348 23.9618 7.39635 23.8872C7.2579 23.8127 7.10191 23.7769 6.94484 23.7837C6.80793 23.7767 6.67158 23.8057 6.54931 23.8678C6.42704 23.9298 6.3231 24.0228 6.24779 24.1374V23.8434H5.72998V26.2253H6.25277V24.9148C6.24165 24.8333 6.24865 24.7504 6.27326 24.672C6.29787 24.5936 6.33949 24.5216 6.39515 24.4611C6.4508 24.4006 6.51912 24.3532 6.59521 24.3223C6.6713 24.2913 6.75328 24.2775 6.83531 24.282C7.17885 24.282 7.35312 24.5062 7.35312 24.9098V26.2353H7.87591V24.9148C7.86524 24.8334 7.87256 24.7507 7.89734 24.6725C7.92212 24.5942 7.96376 24.5224 8.01932 24.462C8.07488 24.4017 8.143 24.3543 8.21888 24.3232C8.29476 24.292 8.37654 24.278 8.45844 24.282C8.81195 24.282 8.98123 24.5062 8.98123 24.9098V26.2353L9.50402 26.2253ZM17.2388 23.8434H16.3874V23.1209H15.8646V23.8434H15.3916V24.3168H15.8746V25.4131C15.8746 25.9662 16.0887 26.2951 16.7011 26.2951C16.9299 26.2958 17.1542 26.2319 17.3483 26.1107L17.199 25.6672C17.0601 25.7501 16.9025 25.7964 16.7409 25.8018C16.492 25.8018 16.3974 25.6423 16.3974 25.4031V24.3168H17.2438L17.2388 23.8434ZM21.6551 23.7837C21.5289 23.7799 21.404 23.8104 21.2936 23.8718C21.1832 23.9332 21.0913 24.0232 21.0278 24.1325V23.8434H20.515V26.2253H21.0328V24.8899C21.0328 24.4962 21.2021 24.277 21.5307 24.277C21.6414 24.2755 21.7514 24.2958 21.8543 24.3368L22.0136 23.8385C21.8954 23.7961 21.7708 23.7742 21.6452 23.7737L21.6551 23.7837ZM14.9784 24.0328C14.6853 23.8584 14.3483 23.7719 14.0075 23.7837C13.405 23.7837 13.0117 24.0727 13.0117 24.546C13.0117 24.9347 13.3005 25.1739 13.8332 25.2486L14.0822 25.2835C14.366 25.3234 14.5004 25.3981 14.5004 25.5327C14.5004 25.7171 14.3112 25.8217 13.9577 25.8217C13.6733 25.8299 13.3945 25.7422 13.166 25.5725L12.9171 25.9762C13.2187 26.1869 13.58 26.2952 13.9477 26.2851C14.6348 26.2851 15.0331 25.9612 15.0331 25.5078C15.0331 25.0543 14.7195 24.8699 14.2017 24.7952L13.9527 24.7603C13.7287 24.7304 13.5494 24.6856 13.5494 24.5261C13.5494 24.3667 13.7187 24.2471 14.0025 24.2471C14.2648 24.2501 14.5219 24.3205 14.7493 24.4514L14.9784 24.0328ZM28.8472 23.7837C28.721 23.7799 28.5961 23.8104 28.4856 23.8718C28.3752 23.9332 28.2834 24.0232 28.2199 24.1325V23.8434H27.707V26.2253H28.2249V24.8899C28.2249 24.4962 28.3941 24.277 28.7227 24.277C28.8335 24.2755 28.9435 24.2958 29.0464 24.3368L29.2057 23.8385C29.0874 23.7961 28.9629 23.7742 28.8373 23.7737L28.8472 23.7837ZM22.1754 25.0294C22.1693 25.1968 22.1981 25.3636 22.2601 25.5192C22.322 25.6748 22.4158 25.8157 22.5353 25.933C22.6548 26.0502 22.7974 26.1412 22.9541 26.2002C23.1107 26.2591 23.278 26.2846 23.4451 26.2751C23.756 26.291 24.0615 26.1896 24.3014 25.9911L24.0525 25.5725C23.8735 25.7092 23.6552 25.7843 23.4301 25.7868C23.2387 25.7713 23.0602 25.6843 22.93 25.543C22.7998 25.4017 22.7275 25.2166 22.7275 25.0244C22.7275 24.8322 22.7998 24.6471 22.93 24.5058C23.0602 24.3646 23.2387 24.2775 23.4301 24.262C23.6552 24.2645 23.8735 24.3397 24.0525 24.4763L24.3014 24.0577C24.0615 23.8592 23.756 23.7579 23.4451 23.7737C23.278 23.7642 23.1107 23.7897 22.9541 23.8487C22.7974 23.9076 22.6548 23.9986 22.5353 24.1158C22.4158 24.2331 22.322 24.374 22.2601 24.5296C22.1981 24.6852 22.1693 24.8521 22.1754 25.0194V25.0294ZM27.0249 25.0294V23.8434H26.5071V24.1325C26.4192 24.0192 26.3056 23.9285 26.1757 23.8679C26.0459 23.8072 25.9035 23.7784 25.7603 23.7837C25.4302 23.7837 25.1135 23.9149 24.8801 24.1485C24.6467 24.3821 24.5155 24.699 24.5155 25.0294C24.5155 25.3598 24.6467 25.6767 24.8801 25.9103C25.1135 26.1439 25.4302 26.2751 25.7603 26.2751C25.9035 26.2804 26.0459 26.2516 26.1757 26.1909C26.3056 26.1303 26.4192 26.0396 26.5071 25.9263V26.2153H27.0249V25.0294ZM25.0981 25.0294C25.1063 24.8892 25.1554 24.7545 25.2392 24.6418C25.323 24.5292 25.4379 24.4435 25.5697 24.3953C25.7015 24.3472 25.8445 24.3387 25.9811 24.3709C26.1177 24.4031 26.242 24.4745 26.3385 24.5765C26.435 24.6784 26.4997 24.8064 26.5244 24.9446C26.5492 25.0829 26.5331 25.2253 26.478 25.3545C26.4229 25.4837 26.3312 25.5939 26.2143 25.6716C26.0974 25.7493 25.9604 25.7911 25.82 25.7918C25.7215 25.793 25.6237 25.7739 25.5329 25.7355C25.4421 25.6971 25.3602 25.6403 25.2924 25.5687C25.2246 25.4971 25.1723 25.4122 25.1389 25.3194C25.1054 25.2266 25.0915 25.1278 25.0981 25.0294ZM18.8495 23.7837C18.5194 23.7883 18.2046 23.924 17.9744 24.1609C17.7443 24.3977 17.6176 24.7164 17.6222 25.0468C17.6268 25.3772 17.7624 25.6923 17.9991 25.9226C18.2358 26.153 18.5542 26.2798 18.8844 26.2751C19.2425 26.2935 19.5947 26.1781 19.8727 25.9513L19.6237 25.5676C19.4271 25.7253 19.1836 25.813 18.9317 25.8167C18.7605 25.8314 18.5903 25.7788 18.4574 25.6699C18.3244 25.561 18.2391 25.4045 18.2197 25.2337H19.9872C19.9872 25.1689 19.9872 25.1041 19.9872 25.0344C19.9872 24.2869 19.5241 23.7886 18.857 23.7886L18.8495 23.7837ZM18.8495 24.2471C18.927 24.2454 19.004 24.2591 19.0763 24.2872C19.1485 24.3154 19.2144 24.3575 19.2704 24.4112C19.3263 24.4649 19.3712 24.529 19.4023 24.6001C19.4335 24.6711 19.4503 24.7475 19.452 24.8251H18.2072C18.2162 24.6652 18.2875 24.5151 18.4056 24.4071C18.5238 24.299 18.6796 24.2416 18.8395 24.2471H18.8495ZM31.8221 25.0344V22.8867H31.3242V24.1325C31.2363 24.0192 31.1227 23.9285 30.9929 23.8679C30.863 23.8072 30.7206 23.7784 30.5774 23.7837C30.2473 23.7837 29.9307 23.9149 29.6972 24.1485C29.4638 24.3821 29.3327 24.699 29.3327 25.0294C29.3327 25.3598 29.4638 25.6767 29.6972 25.9103C29.9307 26.1439 30.2473 26.2751 30.5774 26.2751C30.7206 26.2804 30.863 26.2516 30.9929 26.1909C31.1227 26.1303 31.2363 26.0396 31.3242 25.9263V26.2153H31.8221V25.0344ZM32.686 25.879C32.7184 25.8786 32.7505 25.8845 32.7806 25.8964C32.8092 25.9081 32.8353 25.925 32.8578 25.9463C32.8796 25.9677 32.8974 25.9931 32.91 26.021C32.9226 26.0501 32.9292 26.0815 32.9292 26.1132C32.9292 26.1449 32.9226 26.1763 32.91 26.2054C32.8974 26.2333 32.8796 26.2586 32.8578 26.2801C32.8353 26.3014 32.8092 26.3183 32.7806 26.33C32.7508 26.3431 32.7186 26.3499 32.686 26.3499C32.6388 26.3495 32.5927 26.3358 32.553 26.3102C32.5133 26.2846 32.4818 26.2482 32.4619 26.2054C32.4495 26.1762 32.443 26.1449 32.443 26.1132C32.443 26.0815 32.4495 26.0501 32.4619 26.021C32.4746 25.9931 32.4923 25.9677 32.5142 25.9463C32.5366 25.925 32.5628 25.9081 32.5914 25.8964C32.6238 25.8835 32.6586 25.8776 32.6935 25.879H32.686ZM32.686 26.3001C32.7108 26.3002 32.7354 26.2951 32.7582 26.2851C32.7796 26.2755 32.799 26.262 32.8154 26.2452C32.8466 26.2112 32.8639 26.1668 32.8639 26.1207C32.8639 26.0745 32.8466 26.0301 32.8154 25.9961C32.7991 25.9793 32.7796 25.9658 32.7582 25.9562C32.7354 25.9463 32.7108 25.9412 32.686 25.9413C32.6612 25.9414 32.6366 25.9465 32.6138 25.9562C32.5914 25.9654 32.5711 25.979 32.554 25.9961C32.5229 26.0301 32.5056 26.0745 32.5056 26.1207C32.5056 26.1668 32.5229 26.2112 32.554 26.2452C32.5712 26.2623 32.5915 26.2759 32.6138 26.2851C32.6389 26.2959 32.6661 26.3011 32.6935 26.3001H32.686ZM32.7009 26.0036C32.7242 26.0024 32.7471 26.0095 32.7656 26.0235C32.7733 26.0298 32.7793 26.0379 32.7832 26.047C32.7871 26.0561 32.7887 26.0659 32.7881 26.0758C32.7884 26.0841 32.7871 26.0924 32.784 26.1001C32.781 26.1078 32.7765 26.1148 32.7706 26.1207C32.7562 26.1338 32.7378 26.1417 32.7184 26.1431L32.7905 26.2253H32.7333L32.6661 26.1431H32.6437V26.2253H32.5964V26.0061L32.7009 26.0036ZM32.6462 26.0459V26.1057H32.7009C32.7107 26.1086 32.7211 26.1086 32.7308 26.1057C32.7325 26.1022 32.7335 26.0984 32.7335 26.0945C32.7335 26.0906 32.7325 26.0868 32.7308 26.0833C32.7325 26.0798 32.7335 26.076 32.7335 26.0721C32.7335 26.0682 32.7325 26.0644 32.7308 26.0609C32.7211 26.058 32.7107 26.058 32.7009 26.0609L32.6462 26.0459ZM29.9077 25.0344C29.916 24.8942 29.965 24.7595 30.0488 24.6468C30.1326 24.5341 30.2475 24.4485 30.3794 24.4003C30.5112 24.3522 30.6542 24.3437 30.7908 24.3759C30.9274 24.408 31.0516 24.4795 31.1481 24.5814C31.2447 24.6834 31.3093 24.8114 31.3341 24.9496C31.3589 25.0878 31.3427 25.2303 31.2876 25.3595C31.2325 25.4886 31.1409 25.5989 31.024 25.6766C30.9071 25.7543 30.77 25.796 30.6297 25.7968C30.5311 25.798 30.4334 25.7788 30.3426 25.7404C30.2517 25.702 30.1699 25.6453 30.1021 25.5736C30.0342 25.502 29.982 25.4172 29.9485 25.3244C29.9151 25.2315 29.9012 25.1328 29.9077 25.0344ZM12.4242 25.0344V23.8434H11.9064V24.1325C11.8184 24.0192 11.7048 23.9285 11.575 23.8679C11.4451 23.8072 11.3027 23.7784 11.1595 23.7837C10.8294 23.7837 10.5128 23.9149 10.2794 24.1485C10.0459 24.3821 9.91478 24.699 9.91478 25.0294C9.91478 25.3598 10.0459 25.6767 10.2794 25.9103C10.5128 26.1439 10.8294 26.2751 11.1595 26.2751C11.3027 26.2804 11.4451 26.2516 11.575 26.1909C11.7048 26.1303 11.8184 26.0396 11.9064 25.9263V26.2153H12.4242V25.0344ZM10.4973 25.0344C10.5056 24.8942 10.5546 24.7595 10.6384 24.6468C10.7222 24.5341 10.8371 24.4485 10.9689 24.4003C11.1008 24.3522 11.2438 24.3437 11.3804 24.3759C11.517 24.408 11.6412 24.4795 11.7377 24.5814C11.8343 24.6834 11.8989 24.8114 11.9237 24.9496C11.9485 25.0878 11.9323 25.2303 11.8772 25.3595C11.8221 25.4886 11.7305 25.5989 11.6136 25.6766C11.4967 25.7543 11.3596 25.796 11.2193 25.7968C11.1203 25.7987 11.022 25.7801 10.9306 25.742C10.8392 25.7039 10.7567 25.6472 10.6883 25.5755C10.62 25.5038 10.5673 25.4187 10.5335 25.3256C10.4998 25.2324 10.4858 25.1332 10.4923 25.0344H10.4973Z" fill="#8A8A8A"/>
<path d="M15.3044 12.7465C15.3029 11.3879 15.6104 10.0469 16.2034 8.82485C16.7965 7.60283 17.6596 6.53187 18.7274 5.69308C17.4053 4.65319 15.8175 4.00654 14.1455 3.82705C12.4735 3.64755 10.7848 3.94245 9.27241 4.67803C7.75999 5.41362 6.48485 6.56021 5.59274 7.98678C4.70063 9.41334 4.22754 11.0623 4.22754 12.7452C4.22754 14.4282 4.70063 16.0771 5.59274 17.5037C6.48485 18.9303 7.75999 20.0769 9.27241 20.8124C10.7848 21.548 12.4735 21.8429 14.1455 21.6634C15.8175 21.4839 17.4053 20.8373 18.7274 19.7974C17.6599 18.9589 16.797 17.8883 16.204 16.6667C15.6109 15.4452 15.3033 14.1046 15.3044 12.7465Z" fill="#8A8A8A"/>
<path d="M33.2282 12.7461C33.2282 14.4291 32.755 16.0782 31.8627 17.5048C30.9705 18.9314 29.6951 20.078 28.1825 20.8135C26.6699 21.549 24.981 21.8437 23.3089 21.6639C21.6369 21.4841 20.0491 20.8372 18.7271 19.797C19.7941 18.9577 20.6568 17.8868 21.25 16.6652C21.8432 15.4436 22.1514 14.1031 22.1514 12.7448C22.1514 11.3866 21.8432 10.0461 21.25 8.82442C20.6568 7.60278 19.7941 6.53193 18.7271 5.69266C20.0491 4.65244 21.6369 4.00548 23.3089 3.82572C24.981 3.64597 26.6699 3.94067 28.1825 4.67615C29.6951 5.41164 30.9705 6.55821 31.8627 7.98483C32.755 9.41144 33.2282 11.0605 33.2282 12.7436V12.7461Z" fill="#8A8A8A"/>
<path fill-rule="evenodd" clip-rule="evenodd" d="M16.917 9.63384C16.4918 10.6263 16.2714 11.7154 16.2725 12.8187C16.2717 13.9217 16.4922 15.0104 16.9174 16.0025C17.3426 16.9945 17.9612 17.8639 18.7264 18.5449H18.7266C19.4916 17.8633 20.11 16.9936 20.5353 16.0016C20.9606 15.0094 21.1816 13.9208 21.1816 12.8177C21.1816 11.7146 20.9606 10.6259 20.5353 9.63381C20.11 8.64168 19.4915 7.77201 18.7265 7.09041L18.7266 7.09033H18.7264C18.7265 7.09037 18.7265 7.0904 18.7265 7.09043C17.961 7.77164 17.3422 8.64139 16.917 9.63384Z" fill="#8A8A8A"/>
<path d="M32.3721 18.3024V18.0134H32.4891V17.9536H32.1929V18.0134H32.3198V18.3024H32.3721ZM32.9472 18.3024V17.9536H32.8576L32.753 18.2028L32.6484 17.9536H32.5688V18.3024H32.6335V18.0408L32.7306 18.2675H32.7978L32.8949 18.0408V18.3049L32.9472 18.3024Z" fill="#8A8A8A"/>
</svg>
