<svg width="29" height="22" viewBox="0 0 29 22" fill="none" xmlns="http://www.w3.org/2000/svg">
<path d="M26.3436 0H2.53846C1.1405 0 0 1.13926 0 2.53846V19.4615C0 20.856 1.13543 22 2.53846 22H26.3436C27.7381 22 28.8821 20.8646 28.8821 19.4615V2.53846C28.8821 1.144 27.7466 0 26.3436 0ZM25.9931 1.69231L14.4948 13.1906L2.89717 1.69231H25.9931ZM1.69231 19.1111V2.88082L9.84241 10.961L1.69231 19.1111ZM2.88894 20.3077L11.0442 12.1525L13.9017 14.9855C14.2325 15.3135 14.7663 15.3124 15.0958 14.9829L17.8821 12.1966L25.9931 20.3077H2.88894ZM27.1897 19.1111L19.0787 11L27.1897 2.88888V19.1111Z" fill="#7C7C7C"/>
</svg>
