<svg width="30" height="30" viewBox="0 0 30 30" fill="none" xmlns="http://www.w3.org/2000/svg">
<path d="M15 0C12.0333 0 9.13319 0.879734 6.66645 2.52795C4.19971 4.17618 2.27713 6.51885 1.14181 9.25975C0.00649921 12.0006 -0.290551 15.0166 0.288227 17.9263C0.867006 20.8361 2.29562 23.5088 4.3934 25.6066C6.49119 27.7044 9.16394 29.133 12.0736 29.7118C14.9834 30.2906 17.9994 29.9935 20.7403 28.8582C23.4811 27.7229 25.8238 25.8003 27.472 23.3335C29.1203 20.8668 30 17.9667 30 15C30 11.0217 28.4196 7.20644 25.6066 4.3934C22.7936 1.58035 18.9782 0 15 0V0ZM15 28.125C12.4041 28.125 9.86654 27.3552 7.70815 25.913C5.54975 24.4708 3.86749 22.421 2.87409 20.0227C1.88069 17.6244 1.62077 14.9854 2.1272 12.4394C2.63363 9.89344 3.88366 7.55479 5.71923 5.71922C7.55479 3.88366 9.89344 2.63362 12.4394 2.12719C14.9854 1.62076 17.6244 1.88068 20.0227 2.87408C22.421 3.86748 24.4708 5.54974 25.913 7.70814C27.3552 9.86653 28.125 12.4041 28.125 15C28.125 18.481 26.7422 21.8194 24.2808 24.2808C21.8194 26.7422 18.481 28.125 15 28.125Z" fill="#AF7D80"/>
<path d="M20.625 14.0635H9.375C9.12636 14.0635 8.8879 14.1622 8.71209 14.3381C8.53627 14.5139 8.4375 14.7523 8.4375 15.001C8.4375 15.2496 8.53627 15.4881 8.71209 15.6639C8.8879 15.8397 9.12636 15.9385 9.375 15.9385H20.625C20.8736 15.9385 21.1121 15.8397 21.2879 15.6639C21.4637 15.4881 21.5625 15.2496 21.5625 15.001C21.5625 14.7523 21.4637 14.5139 21.2879 14.3381C21.1121 14.1622 20.8736 14.0635 20.625 14.0635Z" fill="#AF7D80"/>
</svg>
