<svg width="28" height="26" viewBox="0 0 28 26" fill="none" xmlns="http://www.w3.org/2000/svg">
<path d="M26.9403 21.3789H24.4545V17.5703C24.4545 16.3103 23.3636 15.2852 22.0227 15.2852H14.7274V13.7617H20.4015C21.7424 13.7617 22.8333 12.7366 22.8333 11.4766V2.28516C22.8333 1.02512 21.7424 0 20.4015 0H7.43211C6.09123 0 5.00034 1.02512 5.00034 2.28516V11.4766C5.00034 12.7366 6.09123 13.7617 7.43211 13.7617H13.1062V15.2852H5.81093C4.47005 15.2852 3.37916 16.3103 3.37916 17.5703V21.3789H0.893353C0.445691 21.3789 0.0827637 21.72 0.0827637 22.1406V25.2383C0.0827637 25.659 0.445691 26 0.893353 26H7.43211C7.87977 26 8.24269 25.659 8.24269 25.2383V22.1406C8.24269 21.72 7.87977 21.3789 7.43211 21.3789H5.00034V17.5703C5.00034 17.1503 5.36397 16.8086 5.81093 16.8086H13.1062V21.3789H10.6745C10.2268 21.3789 9.86387 21.72 9.86387 22.1406V25.2383C9.86387 25.659 10.2268 26 10.6745 26H17.1592C17.6068 26 17.9698 25.659 17.9698 25.2383V22.1406C17.9698 21.72 17.6068 21.3789 17.1592 21.3789H14.7274V16.8086H22.0227C22.4697 16.8086 22.8333 17.1503 22.8333 17.5703V21.3789H20.4015C19.9539 21.3789 19.5909 21.72 19.5909 22.1406V25.2383C19.5909 25.659 19.9539 26 20.4015 26H26.9403C27.3879 26 27.7509 25.659 27.7509 25.2383V22.1406C27.7509 21.72 27.3879 21.3789 26.9403 21.3789ZM6.62152 22.9023V24.4766H1.70394V22.9023H6.62152ZM19.5909 1.52344H20.4015C20.8485 1.52344 21.2121 1.86514 21.2121 2.28516V3.04688H19.5909V1.52344ZM6.62152 2.28516C6.62152 1.86514 6.98515 1.52344 7.43211 1.52344H17.9698V3.04688H6.62152V2.28516ZM16.3486 22.9023V24.4766H11.4851V22.9023H16.3486ZM7.43211 12.2383C6.98515 12.2383 6.62152 11.8966 6.62152 11.4766V4.57031H21.2121V11.4766C21.2121 11.8966 20.8485 12.2383 20.4015 12.2383H7.43211ZM26.1297 24.4766H21.2121V22.9023H26.1297V24.4766Z" fill="white"/>
</svg>
