<svg width="27" height="25" viewBox="0 0 27 25" fill="none" xmlns="http://www.w3.org/2000/svg">
<path d="M24.6522 5.95238H20.9309L18.7826 3.57143H11.7391V5.95238H17.7496L19.8978 8.33333H24.6522V22.619H5.86957V11.9048H3.52174V22.619C3.52174 23.9286 4.57826 25 5.86957 25H24.6522C25.9435 25 27 23.9286 27 22.619V8.33333C27 7.02381 25.9435 5.95238 24.6522 5.95238ZM9.3913 15.4762C9.3913 18.7619 12.0209 21.4286 15.2609 21.4286C18.5009 21.4286 21.1304 18.7619 21.1304 15.4762C21.1304 12.1905 18.5009 9.52381 15.2609 9.52381C12.0209 9.52381 9.3913 12.1905 9.3913 15.4762ZM15.2609 11.9048C17.1978 11.9048 18.7826 13.5119 18.7826 15.4762C18.7826 17.4405 17.1978 19.0476 15.2609 19.0476C13.3239 19.0476 11.7391 17.4405 11.7391 15.4762C11.7391 13.5119 13.3239 11.9048 15.2609 11.9048ZM5.86957 5.95238H9.3913V3.57143H5.86957V0H3.52174V3.57143H0V5.95238H3.52174V9.52381H5.86957V5.95238Z" fill="#552225"/>
</svg>
