<svg width="13" height="13" viewBox="0 0 13 13" fill="none" xmlns="http://www.w3.org/2000/svg">
<path d="M1.73358 0.2755L6.50012 5.04157L11.2667 0.289943C11.3605 0.194462 11.4731 0.119491 11.5975 0.069771C11.7218 0.0200513 11.855 -0.00333545 11.9889 0.00108968C12.2514 0.0180805 12.4989 0.13005 12.6849 0.31609C12.871 0.502131 12.9829 0.749523 12.9999 1.01207C13.0012 1.14117 12.9763 1.26918 12.9267 1.38834C12.877 1.50751 12.8037 1.61535 12.7111 1.70532L7.93008 6.50028L12.7111 11.2952C12.8988 11.4772 13.0028 11.7285 12.9999 11.9885C12.9829 12.251 12.871 12.4984 12.6849 12.6845C12.4989 12.8705 12.2514 12.9825 11.9889 12.9995C11.855 13.0039 11.7218 12.9805 11.5975 12.9308C11.4731 12.8811 11.3605 12.8061 11.2667 12.7106L6.50012 7.95899L1.74803 12.7106C1.65418 12.8061 1.54154 12.8811 1.41723 12.9308C1.29291 12.9805 1.15964 13.0039 1.02582 12.9995C0.758348 12.9855 0.505513 12.873 0.316123 12.6837C0.126734 12.4943 0.0142182 12.2415 0.000295638 11.974C-0.00101126 11.845 0.0239204 11.7169 0.0735782 11.5978C0.123236 11.4786 0.196585 11.3708 0.289177 11.2808L5.07016 6.50028L0.274733 1.70532C0.184748 1.61414 0.114069 1.50575 0.066916 1.38664C0.0197634 1.26753 -0.00289466 1.14014 0.000295638 1.01207C0.0172881 0.749523 0.129268 0.502131 0.315327 0.31609C0.501385 0.13005 0.748802 0.0180805 1.01138 0.00108968C1.14415 -0.00521593 1.2768 0.0158953 1.40105 0.0631071C1.52531 0.110319 1.6385 0.182619 1.73358 0.2755Z" fill="#777777"/>
</svg>
