<svg width="14" height="16" viewBox="0 0 14 16" fill="none" xmlns="http://www.w3.org/2000/svg">
<path d="M7.31803 15.9575C10.3585 15.6169 12.7951 13.1865 13.1419 10.146C13.5971 6.17054 10.5071 2.78643 6.63378 2.74309V0.959694C6.63378 0.860616 6.50993 0.807982 6.42634 0.869905L2.75428 3.56667C2.69236 3.61311 2.69236 3.7029 2.75428 3.74934L6.42634 6.4461C6.50993 6.50802 6.63378 6.45229 6.63378 6.35631V4.57601C9.35531 4.61936 11.535 6.93529 11.3492 9.70327C11.1913 12.0842 9.25004 14.0162 6.86909 14.1679C4.34571 14.3289 2.20007 12.527 1.81614 10.1429C1.74493 9.70017 1.35791 9.37817 0.912064 9.37817C0.35785 9.37817 -0.0756131 9.87046 0.0110796 10.4185C0.549812 13.815 3.68623 16.3631 7.31803 15.9575Z" fill="#AF7D80"/>
</svg>
