<svg width="50" height="50" viewBox="0 0 50 50" fill="none" xmlns="http://www.w3.org/2000/svg">
<g clip-path="url(#clip0)">
<mask id="path-1-inside-1" fill="white">
<path d="M47.4854 30.5793C47.3341 30.0259 46.7611 29.7016 46.2129 29.8518L39.016 31.8135L33.8512 28.8622L41.9258 25.9399C42.3362 25.7907 42.6098 25.4 42.6087 24.9637C42.6077 24.5275 42.3321 24.1368 41.9217 23.9896L33.8585 21.1088L39.0005 18.1534L46.2015 20.0984C46.2916 20.1223 46.3828 20.1347 46.473 20.1347C46.9289 20.1347 47.3476 19.8301 47.473 19.3679C47.6222 18.8155 47.2948 18.2466 46.7424 18.0974L41.5424 16.6933L46.2999 13.9585C46.7963 13.6736 46.9683 13.0394 46.6823 12.544C46.3963 12.0477 45.7652 11.8767 45.2678 12.1617L40.5103 14.8953L41.9144 9.69637C42.0637 9.14404 41.7362 8.57513 41.1839 8.42591C40.6367 8.27772 40.0626 8.60207 39.9124 9.15648L37.9673 16.3575L32.76 19.3503L34.2792 10.8197C34.3559 10.3896 34.1549 9.95751 33.7756 9.7399C33.3973 9.52332 32.9238 9.5658 32.588 9.8487L26.0429 15.4073V9.45492L31.3165 4.18135C31.7217 3.77617 31.7217 3.12124 31.3165 2.71606C30.9113 2.31088 30.2564 2.31088 29.8512 2.71606L26.0429 6.52435V1.03627C26.0429 0.464249 25.5787 0 25.0067 0C24.4347 0 23.9704 0.464249 23.9704 1.03627V6.52435L20.1621 2.71606C19.7569 2.31088 19.102 2.31088 18.6968 2.71606C18.2916 3.12124 18.2916 3.77617 18.6968 4.18135L23.9704 9.45492V15.4446L17.3611 9.87876C17.0264 9.59793 16.5517 9.55544 16.1735 9.77513C15.7953 9.99378 15.5953 10.4269 15.674 10.857L17.2253 19.3596L12.0253 16.3876L10.0626 9.19171C9.91134 8.63938 9.34035 8.31192 8.79009 8.46425C8.23776 8.61451 7.91237 9.18446 8.06263 9.73679L9.47921 14.9326L4.71445 12.2093C4.21807 11.9264 3.58491 12.0984 3.30097 12.5948C3.01704 13.0912 3.19009 13.7244 3.68647 14.0083L8.4502 16.7306L3.25434 18.1472C2.70201 18.2984 2.37662 18.8674 2.52688 19.4197C2.65331 19.8808 3.06989 20.1834 3.52584 20.1834C3.616 20.1834 3.70719 20.171 3.79942 20.1461L10.9953 18.1845L16.16 21.1358L8.08854 24.058C7.67818 24.2073 7.40356 24.5979 7.4046 25.0342C7.40564 25.4705 7.68025 25.8611 8.09268 26.0083L16.1559 28.8891L11.0139 31.8446L3.81289 29.8995C3.25745 29.7492 2.69061 30.0767 2.54243 30.6301C2.3932 31.1824 2.71963 31.7513 3.273 31.9016L8.47299 33.3057L3.71341 36.0415C3.21704 36.3264 3.04605 36.9606 3.33103 37.456C3.52274 37.7896 3.87196 37.9762 4.23051 37.9762C4.40564 37.9762 4.58284 37.9316 4.74553 37.8383L9.50408 35.1036L8.09994 40.3036C7.95072 40.856 8.27714 41.4249 8.83051 41.5751C8.92066 41.599 9.01185 41.6104 9.10097 41.6104C9.55797 41.6104 9.97662 41.3067 10.101 40.8446L12.0461 33.6446L17.2543 30.6518L15.7352 39.1824C15.6585 39.6135 15.8606 40.0456 16.2388 40.2632C16.3994 40.3554 16.5777 40.401 16.7549 40.401C16.9953 40.401 17.2336 40.3171 17.4253 40.1554L23.9704 34.5959V40.5461L18.6968 45.8207C18.2916 46.2259 18.2916 46.8808 18.6968 47.286C18.8989 47.4881 19.1642 47.5896 19.4295 47.5896C19.6948 47.5896 19.96 47.4881 20.1621 47.286L23.9704 43.4767V48.9648C23.9704 49.5378 24.4347 50.001 25.0067 50.001C25.5787 50.001 26.0429 49.5378 26.0429 48.9648V43.4767L29.8512 47.285C30.0533 47.487 30.3186 47.5886 30.5839 47.5886C30.8492 47.5886 31.1144 47.487 31.3165 47.285C31.7217 46.8798 31.7217 46.2249 31.3165 45.8197L26.0429 40.5451V34.5554L32.6523 40.1202C32.988 40.401 33.4616 40.4415 33.8398 40.2249C34.217 40.0052 34.4181 39.572 34.3383 39.142L32.788 30.6404L37.9891 33.6124L39.9507 40.8073C40.0761 41.2684 40.4937 41.571 40.9497 41.571C41.0409 41.571 41.1321 41.5596 41.2232 41.5347C41.7756 41.3834 42.102 40.8145 41.9507 40.2622L40.5341 35.0663L45.2979 37.7886C45.4595 37.8819 45.6367 37.9254 45.8108 37.9254C46.1704 37.9254 46.5207 37.7378 46.7113 37.4031C46.9953 36.9067 46.8222 36.2736 46.3258 35.9896L41.5611 33.2684L46.758 31.8518C47.3103 31.7005 47.6367 31.1306 47.4854 30.5793ZM38.5103 24.972L31.4906 27.513L27.0906 24.9979L31.4968 22.4663L38.5103 24.972ZM31.7341 13.2912L30.416 20.6964L26.0429 23.2093V18.1244L31.7341 13.2912ZM18.2305 13.3202L23.9704 18.1544V23.2155L19.5777 20.7047L18.2305 13.3202ZM11.503 25.028L18.5217 22.487L22.9227 25.0021L18.5165 27.5337L11.503 25.028ZM18.2792 36.7088L19.5984 29.3036L23.9704 26.7907V31.8746L18.2792 36.7088ZM31.7839 36.6798L26.0429 31.8466V26.7855L30.4367 29.2964L31.7839 36.6798Z"/>
</mask>
<path d="M47.4854 30.5793C47.3341 30.0259 46.7611 29.7016 46.2129 29.8518L39.016 31.8135L33.8512 28.8622L41.9258 25.9399C42.3362 25.7907 42.6098 25.4 42.6087 24.9637C42.6077 24.5275 42.3321 24.1368 41.9217 23.9896L33.8585 21.1088L39.0005 18.1534L46.2015 20.0984C46.2916 20.1223 46.3828 20.1347 46.473 20.1347C46.9289 20.1347 47.3476 19.8301 47.473 19.3679C47.6222 18.8155 47.2948 18.2466 46.7424 18.0974L41.5424 16.6933L46.2999 13.9585C46.7963 13.6736 46.9683 13.0394 46.6823 12.544C46.3963 12.0477 45.7652 11.8767 45.2678 12.1617L40.5103 14.8953L41.9144 9.69637C42.0637 9.14404 41.7362 8.57513 41.1839 8.42591C40.6367 8.27772 40.0626 8.60207 39.9124 9.15648L37.9673 16.3575L32.76 19.3503L34.2792 10.8197C34.3559 10.3896 34.1549 9.95751 33.7756 9.7399C33.3973 9.52332 32.9238 9.5658 32.588 9.8487L26.0429 15.4073V9.45492L31.3165 4.18135C31.7217 3.77617 31.7217 3.12124 31.3165 2.71606C30.9113 2.31088 30.2564 2.31088 29.8512 2.71606L26.0429 6.52435V1.03627C26.0429 0.464249 25.5787 0 25.0067 0C24.4347 0 23.9704 0.464249 23.9704 1.03627V6.52435L20.1621 2.71606C19.7569 2.31088 19.102 2.31088 18.6968 2.71606C18.2916 3.12124 18.2916 3.77617 18.6968 4.18135L23.9704 9.45492V15.4446L17.3611 9.87876C17.0264 9.59793 16.5517 9.55544 16.1735 9.77513C15.7953 9.99378 15.5953 10.4269 15.674 10.857L17.2253 19.3596L12.0253 16.3876L10.0626 9.19171C9.91134 8.63938 9.34035 8.31192 8.79009 8.46425C8.23776 8.61451 7.91237 9.18446 8.06263 9.73679L9.47921 14.9326L4.71445 12.2093C4.21807 11.9264 3.58491 12.0984 3.30097 12.5948C3.01704 13.0912 3.19009 13.7244 3.68647 14.0083L8.4502 16.7306L3.25434 18.1472C2.70201 18.2984 2.37662 18.8674 2.52688 19.4197C2.65331 19.8808 3.06989 20.1834 3.52584 20.1834C3.616 20.1834 3.70719 20.171 3.79942 20.1461L10.9953 18.1845L16.16 21.1358L8.08854 24.058C7.67818 24.2073 7.40356 24.5979 7.4046 25.0342C7.40564 25.4705 7.68025 25.8611 8.09268 26.0083L16.1559 28.8891L11.0139 31.8446L3.81289 29.8995C3.25745 29.7492 2.69061 30.0767 2.54243 30.6301C2.3932 31.1824 2.71963 31.7513 3.273 31.9016L8.47299 33.3057L3.71341 36.0415C3.21704 36.3264 3.04605 36.9606 3.33103 37.456C3.52274 37.7896 3.87196 37.9762 4.23051 37.9762C4.40564 37.9762 4.58284 37.9316 4.74553 37.8383L9.50408 35.1036L8.09994 40.3036C7.95072 40.856 8.27714 41.4249 8.83051 41.5751C8.92066 41.599 9.01185 41.6104 9.10097 41.6104C9.55797 41.6104 9.97662 41.3067 10.101 40.8446L12.0461 33.6446L17.2543 30.6518L15.7352 39.1824C15.6585 39.6135 15.8606 40.0456 16.2388 40.2632C16.3994 40.3554 16.5777 40.401 16.7549 40.401C16.9953 40.401 17.2336 40.3171 17.4253 40.1554L23.9704 34.5959V40.5461L18.6968 45.8207C18.2916 46.2259 18.2916 46.8808 18.6968 47.286C18.8989 47.4881 19.1642 47.5896 19.4295 47.5896C19.6948 47.5896 19.96 47.4881 20.1621 47.286L23.9704 43.4767V48.9648C23.9704 49.5378 24.4347 50.001 25.0067 50.001C25.5787 50.001 26.0429 49.5378 26.0429 48.9648V43.4767L29.8512 47.285C30.0533 47.487 30.3186 47.5886 30.5839 47.5886C30.8492 47.5886 31.1144 47.487 31.3165 47.285C31.7217 46.8798 31.7217 46.2249 31.3165 45.8197L26.0429 40.5451V34.5554L32.6523 40.1202C32.988 40.401 33.4616 40.4415 33.8398 40.2249C34.217 40.0052 34.4181 39.572 34.3383 39.142L32.788 30.6404L37.9891 33.6124L39.9507 40.8073C40.0761 41.2684 40.4937 41.571 40.9497 41.571C41.0409 41.571 41.1321 41.5596 41.2232 41.5347C41.7756 41.3834 42.102 40.8145 41.9507 40.2622L40.5341 35.0663L45.2979 37.7886C45.4595 37.8819 45.6367 37.9254 45.8108 37.9254C46.1704 37.9254 46.5207 37.7378 46.7113 37.4031C46.9953 36.9067 46.8222 36.2736 46.3258 35.9896L41.5611 33.2684L46.758 31.8518C47.3103 31.7005 47.6367 31.1306 47.4854 30.5793ZM38.5103 24.972L31.4906 27.513L27.0906 24.9979L31.4968 22.4663L38.5103 24.972ZM31.7341 13.2912L30.416 20.6964L26.0429 23.2093V18.1244L31.7341 13.2912ZM18.2305 13.3202L23.9704 18.1544V23.2155L19.5777 20.7047L18.2305 13.3202ZM11.503 25.028L18.5217 22.487L22.9227 25.0021L18.5165 27.5337L11.503 25.028ZM18.2792 36.7088L19.5984 29.3036L23.9704 26.7907V31.8746L18.2792 36.7088ZM31.7839 36.6798L26.0429 31.8466V26.7855L30.4367 29.2964L31.7839 36.6798Z" fill="white" stroke="#AF7D80" stroke-width="0.4" mask="url(#path-1-inside-1)"/>
</g>
<defs>
<clipPath id="clip0">
<rect width="50" height="50" fill="white"/>
</clipPath>
</defs>
</svg>
