<svg width="25" height="27" viewBox="0 0 25 27" fill="none" xmlns="http://www.w3.org/2000/svg">
<path d="M11.842 0.00383287C9.72818 0.0293504 5.18359 0.376718 2.64172 2.70869C0.750948 4.58217 0.0907851 7.35206 0.0134094 10.7772C-0.0507961 14.1899 -0.128172 20.599 6.04954 22.344V25.002C6.04954 25.002 6.01085 26.0655 6.71382 26.2836C7.57977 26.5577 8.07283 25.7395 8.89598 24.8604L10.4311 23.1244C14.658 23.4758 17.8954 22.6659 18.2683 22.5457C19.126 22.2716 23.9571 21.6542 24.7465 15.2444C25.5565 8.62464 24.3522 4.45376 22.1783 2.56711H22.1651C21.5091 1.96292 18.8725 0.0416976 12.9821 0.0202958C12.9821 0.0202958 12.545 -0.00933747 11.842 0.00300972V0.00383287ZM11.9145 1.86497C12.5145 1.86085 12.8792 1.88637 12.8792 1.88637C17.865 1.89954 20.2447 3.40013 20.8061 3.90555C22.6368 5.47446 23.5801 9.23459 22.8895 14.7612C22.2334 20.1199 18.3152 20.459 17.59 20.6903C17.2814 20.7891 14.43 21.4921 10.8378 21.2608C10.8378 21.2608 8.16256 24.4891 7.32624 25.3205C7.19371 25.4662 7.03896 25.509 6.94019 25.4876C6.7986 25.453 6.7558 25.2777 6.76403 25.0374L6.78955 20.6261C1.55022 19.1774 1.8589 13.7109 1.91488 10.8554C1.97908 7.99987 2.51495 5.66379 4.11021 4.0817C6.2578 2.1399 10.1167 1.87814 11.9128 1.86497H11.9145ZM12.3096 4.71964C12.2664 4.7192 12.2237 4.72731 12.1837 4.74348C12.1437 4.75966 12.1073 4.78359 12.0767 4.81389C12.046 4.84419 12.0216 4.88027 12.0049 4.92003C11.9882 4.9598 11.9796 5.00248 11.9795 5.0456C11.9795 5.22999 12.1293 5.37568 12.3096 5.37568C13.1257 5.36016 13.9369 5.50637 14.6962 5.80588C15.4556 6.10539 16.1482 6.55227 16.734 7.12075C17.93 8.28221 18.5128 9.8429 18.535 11.8835C18.535 12.0637 18.6807 12.2136 18.8651 12.2136V12.2004C18.952 12.2006 19.0355 12.1665 19.0973 12.1054C19.1591 12.0443 19.1943 11.9613 19.1952 11.8744C19.2352 10.9139 19.0794 9.95535 18.7374 9.05693C18.3954 8.15851 17.8742 7.33902 17.2056 6.64827C15.9026 5.37486 14.2514 4.71881 12.3096 4.71881V4.71964ZM7.97076 5.47446C7.73777 5.44042 7.50014 5.48719 7.29743 5.60699H7.28014C6.80952 5.88286 6.38556 6.23153 6.02402 6.64004C5.72357 6.98741 5.56059 7.33889 5.51779 7.6772C5.49227 7.87887 5.50956 8.08054 5.56965 8.27316L5.59105 8.28633C5.92936 9.28069 6.37139 10.2372 6.91138 11.1377C7.60695 12.4028 8.46297 13.5729 9.45819 14.6188L9.48782 14.6616L9.53474 14.6962L9.56437 14.7307L9.59895 14.7604C10.6486 15.7585 11.8215 16.6185 13.0891 17.3195C14.5378 18.1081 15.4169 18.481 15.9446 18.6357V18.644C16.0993 18.6909 16.2401 18.7123 16.3817 18.7123C16.8313 18.6794 17.257 18.4968 17.5909 18.1937C17.9975 17.8321 18.3423 17.4064 18.6116 16.9335V16.9252C18.8643 16.4495 18.7787 15.9992 18.414 15.6946C17.6837 15.0563 16.894 14.4893 16.0557 14.0014C15.4943 13.6969 14.9239 13.8813 14.6926 14.1899L14.1995 14.8114C13.9468 15.1201 13.4875 15.0773 13.4875 15.0773L13.4743 15.0855C10.0492 14.2105 9.13552 10.7426 9.13552 10.7426C9.13552 10.7426 9.09271 10.2709 9.40962 10.0306L10.027 9.5334C10.3225 9.29304 10.5283 8.72342 10.2114 8.16121C9.72686 7.32173 9.16112 6.53184 8.52227 5.8029C8.38261 5.63105 8.18667 5.51413 7.96912 5.47282L7.97076 5.47446ZM12.8792 6.45236C12.4421 6.45236 12.4421 7.11252 12.8833 7.11252C13.4268 7.12134 13.9633 7.23718 14.462 7.45342C14.9607 7.66965 15.4119 7.98205 15.7898 8.37276C16.1346 8.75306 16.3995 9.19869 16.5689 9.68324C16.7383 10.1678 16.8087 10.6814 16.776 11.1937C16.7775 11.2804 16.8129 11.363 16.8745 11.424C16.9362 11.4849 17.0193 11.5192 17.106 11.5196L17.1192 11.5369C17.2066 11.5363 17.2901 11.5013 17.3519 11.4395C17.4137 11.3778 17.4486 11.2942 17.4493 11.2069C17.4789 9.89887 17.0723 8.80162 16.2747 7.9225C15.4729 7.04338 14.3543 6.55031 12.9261 6.45236H12.8792ZM13.42 8.22706C12.9697 8.21389 12.9524 8.88723 13.3986 8.9004C14.4835 8.95637 15.0103 9.50459 15.0795 10.6323C15.081 10.7179 15.1159 10.7995 15.1768 10.8597C15.2378 10.9198 15.3198 10.9537 15.4054 10.9541H15.4186C15.4626 10.9523 15.5058 10.9416 15.5457 10.9229C15.5855 10.9041 15.6212 10.8776 15.6508 10.8449C15.6803 10.8121 15.7029 10.7739 15.7175 10.7323C15.732 10.6907 15.7382 10.6466 15.7355 10.6027C15.6581 9.13252 14.8564 8.30444 13.4332 8.22789H13.42V8.22706Z" fill="#824C4F"/>
</svg>
