<svg width="59" height="59" viewBox="0 0 59 59" fill="none" xmlns="http://www.w3.org/2000/svg">
<g filter="url(#filter0_d)">
<circle cx="29.5" cy="28.5" r="22.5" fill="#404040"/>
<path d="M28.842 16.0038C26.7282 16.0294 22.1836 16.3767 19.6417 18.7087C17.7509 20.5822 17.0908 23.3521 17.0134 26.7772C16.9492 30.1899 16.8718 36.599 23.0495 38.344V41.002C23.0495 41.002 23.0109 42.0655 23.7138 42.2836C24.5798 42.5577 25.0728 41.7395 25.896 40.8604L27.4311 39.1244C31.658 39.4758 34.8954 38.6659 35.2683 38.5457C36.126 38.2716 40.9571 37.6542 41.7465 31.2444C42.5565 24.6246 41.3522 20.4538 39.1783 18.5671H39.1651C38.5091 17.9629 35.8725 16.0417 29.9821 16.0203C29.9821 16.0203 29.545 15.9907 28.842 16.003V16.0038ZM28.9145 17.865C29.5145 17.8609 29.8792 17.8864 29.8792 17.8864C34.865 17.8995 37.2447 19.4001 37.8061 19.9055C39.6368 21.4745 40.5801 25.2346 39.8895 30.7612C39.2334 36.1199 35.3152 36.459 34.59 36.6903C34.2814 36.7891 31.43 37.4921 27.8378 37.2608C27.8378 37.2608 25.1626 40.4891 24.3262 41.3205C24.1937 41.4662 24.039 41.509 23.9402 41.4876C23.7986 41.453 23.7558 41.2777 23.764 41.0374L23.7895 36.6261C18.5502 35.1774 18.8589 29.7109 18.9149 26.8554C18.9791 23.9999 19.515 21.6638 21.1102 20.0817C23.2578 18.1399 27.1167 17.8781 28.9128 17.865H28.9145ZM29.3096 20.7196C29.2664 20.7192 29.2237 20.7273 29.1837 20.7435C29.1437 20.7597 29.1073 20.7836 29.0767 20.8139C29.046 20.8442 29.0216 20.8803 29.0049 20.92C28.9882 20.9598 28.9796 21.0025 28.9795 21.0456C28.9795 21.23 29.1293 21.3757 29.3096 21.3757C30.1257 21.3602 30.9369 21.5064 31.6962 21.8059C32.4556 22.1054 33.1482 22.5523 33.734 23.1208C34.93 24.2822 35.5128 25.8429 35.535 27.8835C35.535 28.0637 35.6807 28.2136 35.8651 28.2136V28.2004C35.952 28.2006 36.0355 28.1665 36.0973 28.1054C36.1591 28.0443 36.1943 27.9613 36.1952 27.8744C36.2352 26.9139 36.0794 25.9554 35.7374 25.0569C35.3954 24.1585 34.8742 23.339 34.2056 22.6483C32.9026 21.3749 31.2514 20.7188 29.3096 20.7188V20.7196ZM24.9708 21.4745C24.7378 21.4404 24.5001 21.4872 24.2974 21.607H24.2801C23.8095 21.8829 23.3856 22.2315 23.024 22.64C22.7236 22.9874 22.5606 23.3389 22.5178 23.6772C22.4923 23.8789 22.5096 24.0805 22.5696 24.2732L22.591 24.2863C22.9294 25.2807 23.3714 26.2372 23.9114 27.1377C24.607 28.4028 25.463 29.5729 26.4582 30.6188L26.4878 30.6616L26.5347 30.6962L26.5644 30.7307L26.5989 30.7604C27.6486 31.7585 28.8215 32.6185 30.0891 33.3195C31.5378 34.1081 32.4169 34.481 32.9446 34.6357V34.644C33.0993 34.6909 33.2401 34.7123 33.3817 34.7123C33.8313 34.6794 34.257 34.4968 34.5909 34.1937C34.9975 33.8321 35.3423 33.4064 35.6116 32.9335V32.9252C35.8643 32.4495 35.7787 31.9992 35.414 31.6946C34.6837 31.0563 33.894 30.4893 33.0557 30.0014C32.4943 29.6969 31.9239 29.8813 31.6926 30.1899L31.1995 30.8114C30.9468 31.1201 30.4875 31.0773 30.4875 31.0773L30.4743 31.0855C27.0492 30.2105 26.1355 26.7426 26.1355 26.7426C26.1355 26.7426 26.0927 26.2709 26.4096 26.0306L27.027 25.5334C27.3225 25.293 27.5283 24.7234 27.2114 24.1612C26.7269 23.3217 26.1611 22.5318 25.5223 21.8029C25.3826 21.631 25.1867 21.5141 24.9691 21.4728L24.9708 21.4745ZM29.8792 22.4524C29.4421 22.4524 29.4421 23.1125 29.8833 23.1125C30.4268 23.1213 30.9633 23.2372 31.462 23.4534C31.9607 23.6697 32.4119 23.9821 32.7898 24.3728C33.1346 24.7531 33.3995 25.1987 33.5689 25.6832C33.7383 26.1678 33.8087 26.6814 33.776 27.1937C33.7775 27.2804 33.8129 27.363 33.8745 27.424C33.9362 27.4849 34.0193 27.5192 34.106 27.5196L34.1192 27.5369C34.2066 27.5363 34.2901 27.5013 34.3519 27.4395C34.4137 27.3778 34.4486 27.2942 34.4493 27.2069C34.4789 25.8989 34.0723 24.8016 33.2747 23.9225C32.4729 23.0434 31.3543 22.5503 29.9261 22.4524H29.8792ZM30.42 24.2271C29.9697 24.2139 29.9524 24.8872 30.3986 24.9004C31.4835 24.9564 32.0103 25.5046 32.0795 26.6323C32.081 26.7179 32.1159 26.7995 32.1768 26.8597C32.2378 26.9198 32.3198 26.9537 32.4054 26.9541H32.4186C32.4626 26.9523 32.5058 26.9416 32.5457 26.9229C32.5855 26.9041 32.6212 26.8776 32.6508 26.8449C32.6803 26.8121 32.7029 26.7739 32.7175 26.7323C32.732 26.6907 32.7382 26.6466 32.7355 26.6027C32.6581 25.1325 31.8564 24.3044 30.4332 24.2279H30.42V24.2271Z" fill="white"/>
</g>
<defs>
<filter id="filter0_d" x="0" y="0" width="59" height="59" filterUnits="userSpaceOnUse" color-interpolation-filters="sRGB">
<feFlood flood-opacity="0" result="BackgroundImageFix"/>
<feColorMatrix in="SourceAlpha" type="matrix" values="0 0 0 0 0 0 0 0 0 0 0 0 0 0 0 0 0 0 127 0"/>
<feOffset dy="1"/>
<feGaussianBlur stdDeviation="3.5"/>
<feColorMatrix type="matrix" values="0 0 0 0 0.0666667 0 0 0 0 0.0666667 0 0 0 0 0.0666667 0 0 0 0.4 0"/>
<feBlend mode="normal" in2="BackgroundImageFix" result="effect1_dropShadow"/>
<feBlend mode="normal" in="SourceGraphic" in2="effect1_dropShadow" result="shape"/>
</filter>
</defs>
</svg>
