<svg width="40" height="40" viewBox="0 0 40 40" fill="none" xmlns="http://www.w3.org/2000/svg">
<circle cx="20" cy="20" r="20" fill="#824C4F"/>
<path d="M31.4268 15.0158C31.6015 14.4298 31.4268 14 30.6009 14H27.8649C27.1687 14 26.8506 14.3718 26.6759 14.7801C26.6759 14.7801 25.2849 18.2069 23.3136 20.4288C22.6774 21.0753 22.3867 21.2794 22.0398 21.2794C21.8664 21.2794 21.6144 21.0753 21.6144 20.4892V15.0158C21.6144 14.3126 21.4135 14 20.8334 14H16.5342C16.1 14 15.838 14.3252 15.838 14.6352C15.838 15.3006 16.8236 15.4544 16.9247 17.3297V21.3979C16.9247 22.2889 16.7662 22.4515 16.4169 22.4515C15.4899 22.4515 13.2343 19.0122 11.8956 15.075C11.6348 14.31 11.3716 14.0013 10.6729 14.0013H7.9382C7.15595 14.0013 7 14.373 7 14.7814C7 15.5149 7.92697 19.1445 11.318 23.945C13.5786 27.223 16.7612 29 19.6607 29C21.3986 29 21.6132 28.6055 21.6132 27.925V25.4472C21.6132 24.6583 21.7791 24.4995 22.3293 24.4995C22.7335 24.4995 23.4297 24.7062 25.0528 26.2853C26.9067 28.1581 27.2136 28.9987 28.2554 28.9987H30.9901C31.7711 28.9987 32.1616 28.6043 31.9371 27.8254C31.6913 27.0503 30.8055 25.9224 29.6303 24.5877C28.9915 23.8265 28.0371 23.0073 27.7464 22.5977C27.3409 22.0697 27.4582 21.8365 27.7464 21.3677C27.7476 21.3689 31.08 16.6277 31.4268 15.0158Z" fill="white"/>
</svg>
