<svg width="20" height="8" viewBox="0 0 20 8" fill="none" xmlns="http://www.w3.org/2000/svg">
<path fill-rule="evenodd" clip-rule="evenodd" d="M15.7073 6.85457C15.6578 6.80813 15.6185 6.75295 15.5917 6.6922C15.5648 6.63146 15.551 6.56634 15.551 6.50057C15.551 6.4348 15.5648 6.36968 15.5917 6.30894C15.6185 6.24819 15.6578 6.19302 15.7073 6.14657L18.5242 3.50057L15.7073 0.854571C15.6074 0.760685 15.5513 0.633347 15.5513 0.500571C15.5513 0.367795 15.6074 0.240458 15.7073 0.146571C15.8073 0.0526845 15.9428 -6.00976e-05 16.0841 -6.01034e-05C16.2253 -6.01092e-05 16.3609 0.0526845 16.4608 0.146571L19.6532 3.14657C19.7028 3.19302 19.7421 3.24819 19.7689 3.30894C19.7958 3.36968 19.8096 3.4348 19.8096 3.50057C19.8096 3.56634 19.7958 3.63146 19.7689 3.6922C19.7421 3.75295 19.7028 3.80813 19.6532 3.85457L16.4608 6.85457C16.4113 6.90113 16.3526 6.93808 16.288 6.96328C16.2233 6.98849 16.154 7.00146 16.0841 7.00146C16.0141 7.00146 15.9448 6.98849 15.8801 6.96328C15.8155 6.93808 15.7568 6.90113 15.7073 6.85457V6.85457Z" fill="#552225"/>
<path fill-rule="evenodd" clip-rule="evenodd" d="M0.652588 3.5C0.652588 3.36739 0.747887 3.24021 0.91752 3.14645C1.08715 3.05268 1.31722 3 1.55712 3L17.8387 3C18.0786 3 18.3087 3.05268 18.4783 3.14645C18.648 3.24021 18.7433 3.36739 18.7433 3.5C18.7433 3.63261 18.648 3.75978 18.4783 3.85355C18.3087 3.94732 18.0786 4 17.8387 4L1.55712 4C1.31722 4 1.08715 3.94732 0.91752 3.85355C0.747887 3.75979 0.652588 3.63261 0.652588 3.5V3.5Z" fill="#552225"/>
</svg>
