<svg width="30" height="28" viewBox="0 0 30 28" fill="none" xmlns="http://www.w3.org/2000/svg">
<path d="M5.23638 5.01288L5.24251 5.08117H5.31108H28.7674C29.5202 5.08117 30.0722 5.78969 29.8899 6.51883L27.3865 16.5319C27.2638 17.0225 26.8367 17.3766 26.3319 17.4062L6.64216 18.5634L6.53562 18.5697L6.5776 18.6679C6.94113 19.5174 7.78337 20.1005 8.75001 20.1005H22.5094C24.5276 20.1005 26.1697 21.7427 26.1697 23.7609C26.1697 25.7791 24.5276 27.4212 22.5094 27.4212C19.9804 27.4212 18.2025 24.8983 19.0676 22.5153L19.1041 22.4146H18.9971H12.2539H12.1469L12.1834 22.5153C13.0497 24.9014 11.268 27.4212 8.74168 27.4212C5.69817 27.4212 3.98843 23.8983 5.85942 21.509L5.9054 21.4503L5.84694 21.4039C4.80412 20.5778 4.1994 19.362 4.10064 18.2446L4.10063 18.2446L2.88426 4.69239L2.70403 2.68443L2.68639 2.48792L2.68413 2.46276L2.68373 2.45829L2.68369 2.45784L2.68365 2.45746L2.68364 2.45731C2.68363 2.4573 2.68361 2.45729 2.68359 2.45728L2.67747 2.38905H2.6089H1.23206C0.593039 2.38905 0.0750122 1.87102 0.0750122 1.232C0.0750122 0.592978 0.593039 0.0749512 1.23206 0.0749512H3.73529C4.33419 0.0749512 4.83415 0.53204 4.88771 1.12858L5.23638 5.01288ZM2.72081 4.54925C2.72082 4.54924 2.72083 4.54923 2.72084 4.54921L2.72078 4.54929L2.72081 4.54959C2.72082 4.5496 2.72083 4.54961 2.72084 4.54962L2.73486 4.70579L2.72081 4.54925ZM2.7985 4.57595C2.84124 4.57073 2.87019 4.53606 2.87019 4.53597L2.87018 4.53585L2.87017 4.53574L2.87003 4.53421L2.86936 4.52683L2.7985 4.57595ZM25.2927 15.1493L25.3476 15.1461L25.361 15.0926L27.2622 7.4884L27.2855 7.39521H27.1894H5.53226H5.45022L5.45756 7.47691L6.2402 16.1961L6.2467 16.2686L6.3193 16.2642L25.2927 15.1493ZM7.39556 23.7609C7.39556 24.5033 7.9994 25.107 8.74168 25.107C9.48402 25.107 10.0879 24.5033 10.0879 23.7609C10.0879 23.0186 9.48402 22.4146 8.74168 22.4146C7.9994 22.4146 7.39556 23.0186 7.39556 23.7609ZM21.1632 23.7609C21.1632 24.5033 21.767 25.107 22.5093 25.107C23.2517 25.107 23.8555 24.5033 23.8555 23.7609C23.8555 23.0186 23.2517 22.4146 22.5093 22.4146C21.767 22.4146 21.1632 23.0186 21.1632 23.7609Z" fill="#552225" stroke="white" stroke-width="0.15"/>
</svg>
