<svg width="30" height="28" viewBox="0 0 30 28" fill="none" xmlns="http://www.w3.org/2000/svg">
<path d="M5.23637 5.01293L5.2425 5.08122H5.31107H28.7674C29.5202 5.08122 30.0722 5.78974 29.8899 6.51888L27.3865 16.5319C27.2638 17.0225 26.8367 17.3767 26.3319 17.4063L6.64215 18.5635L6.53561 18.5697L6.57759 18.6679C6.94112 19.5174 7.78336 20.1006 8.75 20.1006H22.5094C24.5276 20.1006 26.1697 21.7427 26.1697 23.7609C26.1697 25.7791 24.5276 27.4212 22.5094 27.4212C19.9804 27.4212 18.2025 24.8983 19.0676 22.5153L19.1041 22.4147H18.9971H12.2539H12.1469L12.1834 22.5153C13.0497 24.9014 11.268 27.4212 8.74167 27.4212C5.69816 27.4212 3.98842 23.8983 5.85941 21.509L5.90539 21.4503L5.84693 21.404C4.80411 20.5779 4.19939 19.3621 4.10063 18.2447L4.10062 18.2446L2.88425 4.69244L2.70402 2.68448L2.68638 2.48797L2.68412 2.46281L2.68372 2.45834L2.68368 2.45789L2.68364 2.45751L2.68363 2.45736C2.68362 2.45735 2.6836 2.45734 2.68358 2.45733L2.67746 2.3891H2.60889H1.23205C0.593027 2.3891 0.075 1.87107 0.075 1.23205C0.075 0.593027 0.593027 0.075 1.23205 0.075H3.73528C4.33418 0.075 4.83414 0.532089 4.8877 1.12863L5.23637 5.01293ZM2.7208 4.5493C2.72081 4.54929 2.72082 4.54928 2.72083 4.54926L2.72077 4.54934L2.7208 4.54964C2.72081 4.54965 2.72082 4.54966 2.72083 4.54967L2.73485 4.70584L2.7208 4.5493ZM2.79849 4.576C2.84123 4.57078 2.87018 4.53611 2.87018 4.53602L2.87017 4.5359L2.87016 4.53579L2.87002 4.53426L2.86935 4.52688L2.79849 4.576ZM25.2927 15.1493L25.3476 15.1461L25.361 15.0926L27.2622 7.48845L27.2855 7.39526H27.1894H5.53225H5.45021L5.45755 7.47696L6.24019 16.1962L6.24669 16.2686L6.31929 16.2643L25.2927 15.1493ZM7.39555 23.7609C7.39555 24.5033 7.99939 25.1071 8.74167 25.1071C9.48401 25.1071 10.0879 24.5033 10.0879 23.7609C10.0879 23.0186 9.48401 22.4147 8.74167 22.4147C7.99939 22.4147 7.39555 23.0186 7.39555 23.7609ZM21.1632 23.7609C21.1632 24.5033 21.767 25.1071 22.5093 25.1071C23.2517 25.1071 23.8555 24.5033 23.8555 23.7609C23.8555 23.0186 23.2517 22.4147 22.5093 22.4147C21.767 22.4147 21.1632 23.0186 21.1632 23.7609Z" fill="#824C4F" stroke="white" stroke-width="0.15"/>
</svg>
