<svg width="41" height="24" viewBox="0 0 41 24" fill="none" xmlns="http://www.w3.org/2000/svg">
<path fill-rule="evenodd" clip-rule="evenodd" d="M16.3234 17.9805H28.8269C30.2426 13.8592 36.1499 13.8988 37.5519 17.9805H38.5967V12.0399C38.5967 11.2998 37.9833 10.6932 37.2351 10.6932C34.1643 10.6932 31.0934 10.6932 28.0226 10.6932C27.3589 10.6932 26.8208 10.1612 26.8208 9.50523V2.37631H6.2332V3.80185H8.44255C10.0244 3.80185 10.0244 6.17815 8.44255 6.17815H6.2332V8.47528H12.001C13.5832 8.47528 13.5832 10.8516 12.001 10.8516H6.2332V17.9802H7.5986C9.01405 13.8589 14.9217 13.8991 16.3234 17.9805ZM3.82992 6.17815H2.38819C0.806022 6.17815 0.806022 3.80185 2.38819 3.80185H3.82992V1.188C3.82992 0.531986 4.36794 0 5.03172 0C6.8707 0 27.0814 0.00773234 27.0814 0C30.3709 0 33.2362 1.61019 34.9222 4.40775L37.2782 8.31723C39.3343 8.34012 41 10.0032 41 12.0396V19.1685C41 19.8245 40.462 20.3565 39.7985 20.3565H37.7037C37.2729 22.4535 35.3989 24 33.1896 24C30.9802 24 29.1062 22.4535 28.6755 20.3565H16.4751C16.0444 22.4535 14.1703 24 11.961 24C9.75164 24 7.87762 22.4535 7.44689 20.3565H5.03172C4.36794 20.3565 3.82992 19.8245 3.82992 19.1685V15.6039H1.18639C-0.395465 15.6039 -0.395465 13.2279 1.18639 13.2279H3.82992V10.8516H1.18639C-0.395465 10.8516 -0.395465 8.47528 1.18639 8.47528H3.82992V6.17815ZM34.7473 17.9054C35.6075 18.7559 35.6075 20.1354 34.7473 20.9859C33.3635 22.3542 30.9865 21.3809 30.9865 19.4456C30.9865 17.5104 33.3635 16.537 34.7473 17.9054ZM34.4893 8.31692H29.2241V2.69828C30.7572 3.18418 32.0109 4.20424 32.8661 5.62359L34.4893 8.31692ZM13.5188 17.9054C14.379 18.7559 14.379 20.1354 13.5188 20.9859C12.1349 22.3542 9.7579 21.3809 9.7579 19.4456C9.75821 17.5104 12.1349 16.537 13.5188 17.9054Z" fill="white"/>
</svg>
