<svg width="50" height="50" viewBox="0 0 50 50" fill="none" xmlns="http://www.w3.org/2000/svg">
<g clip-path="url(#clip0)">
<path d="M35.6514 34.9948C35.2699 34.6133 34.6519 34.6133 34.2705 34.9948C33.889 35.3759 33.889 35.9942 34.2705 36.3757L36.5204 38.6256C36.7111 38.8163 36.961 38.9117 37.2108 38.9117C37.4607 38.9117 37.7106 38.8163 37.9013 38.6256L41.9014 34.6259C42.2829 34.2444 42.2829 33.6261 41.9014 33.2446C41.5199 32.8631 40.9019 32.8631 40.5201 33.2446L37.2108 36.5542L35.6514 34.9948Z" fill="white"/>
<path d="M49.3145 25.7253L38.4003 22.318C38.3003 22.284 38.1947 22.2657 38.0867 22.2657C38.0863 22.2657 38.0856 22.2657 38.0852 22.2657C37.9776 22.2657 37.8716 22.284 37.772 22.3176L36.5826 22.6891C35.7304 18.8477 33.8772 15.3188 31.1821 12.4265C30.5836 11.7841 29.6677 11.5735 28.8483 11.8901C28.0293 12.2071 27.4933 12.9788 27.4826 13.857L27.4754 14.4578C27.4517 16.3899 26.543 18.1821 25.0687 19.3509V15.4164C25.0687 12.4925 24.3858 9.56048 23.0938 6.93711C21.8021 4.31412 19.894 1.98525 17.5762 0.203024C17.2813 -0.023951 16.8831 -0.0632424 16.5493 0.10079C16.2155 0.265203 16.0042 0.605093 16.0042 0.977026C16.0042 4.89701 14.6503 8.73688 12.1914 11.7894C9.45358 15.1887 7.83844 19.3879 7.57637 23.7309C6.86035 22.7357 6.36749 21.5867 6.14433 20.3626L6.06995 19.9536C5.94597 19.2746 5.42603 18.7634 4.74548 18.6505C4.0638 18.538 3.40767 18.8546 3.07159 19.4573C1.06239 23.0626 0 27.15 0 31.2776V31.2951C0 33.6495 0.431824 35.9483 1.28365 38.1284C1.43433 38.514 1.80283 38.7498 2.19345 38.7498C2.31171 38.7498 2.43149 38.7284 2.5486 38.6826C3.05099 38.4866 3.29895 37.9201 3.10287 37.4177C2.33994 35.4649 1.95312 33.4054 1.95312 31.2951V31.2776C1.95312 27.7978 2.77405 24.3493 4.33464 21.2449C4.86183 23.4654 6.1161 25.4537 7.90443 26.8876C8.1974 27.1226 8.59909 27.1684 8.93784 27.0062C9.27658 26.8433 9.49211 26.5012 9.49211 26.1258V24.9844C9.49211 20.6452 10.9909 16.3941 13.7131 13.0147C16.0221 10.1476 17.4561 6.65673 17.8482 3.01484C21.175 6.23902 23.1155 10.748 23.1155 15.4164V21.0717C23.1155 21.4017 23.2822 21.7095 23.5588 21.89C23.8354 22.07 24.1844 22.0982 24.4865 21.9651C27.449 20.6574 29.3888 17.7197 29.4285 14.4814L29.4357 13.8806C29.4361 13.8501 29.4373 13.7566 29.5528 13.712C29.6688 13.667 29.7325 13.7353 29.7535 13.7578C32.2475 16.4346 33.9504 19.7095 34.7111 23.2736L26.8574 25.7253C26.4496 25.8527 26.1719 26.2303 26.1719 26.6576V35.7911C26.1719 36.7078 26.2592 37.6073 26.4252 38.4816C26.3973 38.4099 26.3706 38.3374 26.3405 38.2665C26.3363 38.2558 26.3317 38.2451 26.3271 38.2344C26.326 38.2325 26.3252 38.231 26.3245 38.2291C26.1143 37.7377 25.8541 37.2624 25.5516 36.8157C25.2842 36.3564 25.0031 35.8933 24.7311 35.4455C23.1079 32.7714 21.5748 30.2453 22.1989 27.5556C22.2809 27.2027 22.1607 26.8334 21.8864 26.5962C21.6125 26.3593 21.2296 26.2933 20.892 26.4253C19.1853 27.0932 17.659 28.4352 16.5943 30.2041C16.3185 30.663 16.0881 31.1295 15.9077 31.5877C14.4588 30.0702 12.7884 29.8676 12.6919 29.8573C12.3474 29.82 12.0102 29.9699 11.8038 30.2476C11.5974 30.5253 11.554 30.8938 11.689 31.2127C11.7374 31.3271 12.8517 34.0371 11.4063 37.0503C11.2282 37.3326 11.0672 37.6237 10.9272 37.9159C10.915 37.9399 10.9039 37.964 10.8936 37.988C10.3706 39.1095 10.1059 40.3081 10.1059 41.5513C10.1059 43.4342 10.725 45.1745 11.7702 46.581C10.3786 45.9515 9.07059 45.1283 7.89185 44.1281C7.48062 43.7791 6.86417 43.8294 6.5155 44.2407C6.16646 44.6519 6.21681 45.2683 6.62804 45.6174C9.87968 48.3762 14.0102 49.9318 18.259 49.9982C18.3575 49.9997 18.4551 50.0005 18.5532 50.0005H18.5551C18.5604 50.0005 18.5661 50.0001 18.5719 50.0001C22.8504 49.9959 26.9524 48.533 30.2532 45.8474C32.2636 47.9226 34.901 49.4077 37.9025 49.9829C37.9627 49.9947 38.0245 50.0005 38.0859 50.0005C38.1474 50.0005 38.2092 49.9947 38.2698 49.9829C45.0668 48.6806 50 42.7121 50 35.7911V26.6576C50 26.2303 49.7223 25.8527 49.3145 25.7253ZM12.6774 38.7841C12.6793 38.7799 12.6812 38.7761 12.6831 38.7723C12.7979 38.5301 12.9322 38.2886 13.0829 38.0536C13.1031 38.0216 13.1218 37.9888 13.1382 37.9552C14.1525 35.8777 14.1937 33.904 14.0057 32.5002C14.5657 32.9297 15.1604 33.6163 15.5643 34.7096C15.7455 35.201 16.2827 35.4623 16.7809 35.3005C17.2794 35.1395 17.5617 34.6139 17.421 34.1092C17.17 33.2078 18.1305 30.6527 20.1054 29.1081C20.2045 31.7521 21.6522 34.1374 23.0614 36.4591C23.3345 36.9088 23.6172 37.3738 23.88 37.827C23.8922 37.848 23.9052 37.8686 23.9185 37.8884C24.1611 38.2428 24.3687 38.6208 24.5346 39.0107C24.5361 39.0141 24.5373 39.0172 24.5388 39.0206C24.8783 39.8221 25.0504 40.6735 25.0504 41.5517C25.0504 45.1211 22.1561 48.0267 18.5909 48.0466C18.5623 48.0466 18.5341 48.0462 18.5055 48.0462C14.9467 48.0195 12.059 45.1169 12.059 41.5517C12.059 40.5847 12.2669 39.6535 12.6774 38.7841ZM25.3178 46.61C26.376 45.1989 27.0035 43.4472 27.0035 41.5517C27.0035 41.1565 26.9749 40.7659 26.9215 40.3798C27.4033 41.8145 28.1055 43.1546 28.9913 44.3562C27.861 45.2714 26.6258 46.0263 25.3178 46.61ZM48.0469 35.7911C48.0469 41.7142 43.8694 46.8305 38.0859 48.0283C32.3025 46.8305 28.125 41.7142 28.125 35.7911V27.3755L38.0859 24.2658L48.0469 27.3755V35.7911Z" fill="white"/>
<path d="M37.7949 26.4023L30.7636 28.5976C30.3558 28.725 30.0781 29.1023 30.0781 29.5295V35.7906C30.0781 40.5239 33.2649 44.7048 37.8273 45.9575C37.912 45.9808 37.999 45.9922 38.0859 45.9922C38.1729 45.9922 38.2599 45.9808 38.3446 45.9575C42.907 44.7048 46.0938 40.5239 46.0938 35.7906V29.5295C46.0938 29.1023 45.816 28.7246 45.4082 28.5976L38.377 26.4023C38.1874 26.3431 37.9845 26.3431 37.7949 26.4023ZM44.1406 30.2479V35.7906C44.1406 39.5569 41.6641 42.8939 38.0859 43.9987C34.5078 42.8939 32.0312 39.5569 32.0312 35.7906V30.2479L38.0859 28.3573L44.1406 30.2479Z" fill="white"/>
<path d="M4.28711 40.6602C4.03038 40.6602 3.77823 40.7647 3.59665 40.9463C3.41507 41.1278 3.31055 41.38 3.31055 41.6367C3.31055 41.8934 3.41507 42.1456 3.59665 42.3272C3.77823 42.5088 4.03038 42.6133 4.28711 42.6133C4.54384 42.6133 4.79599 42.5088 4.97757 42.3272C5.15915 42.1456 5.26367 41.8934 5.26367 41.6367C5.26367 41.38 5.15915 41.1278 4.97757 40.9463C4.79599 40.7647 4.54384 40.6602 4.28711 40.6602Z" fill="white"/>
</g>
<defs>
<clipPath id="clip0">
<rect width="50" height="50" fill="white"/>
</clipPath>
</defs>
</svg>
