<svg width="28" height="27" viewBox="0 0 28 27" fill="none" xmlns="http://www.w3.org/2000/svg">
<path d="M27.4946 11.9956L25.1322 9.80897V2.5585C25.1322 2.09717 24.7641 1.72311 24.3098 1.72311H18.6233C18.1692 1.72311 17.8009 2.09711 17.8009 2.5585V3.0231L14.9479 0.38235C14.3972 -0.127469 13.5668 -0.127413 13.0163 0.382295L0.469595 11.9956C0.0285021 12.4039 -0.117273 13.0331 0.098249 13.5984C0.313825 14.1637 0.838702 14.5289 1.43551 14.5289H3.43938V26.1646C3.43938 26.6259 3.80756 26.9999 4.26176 26.9999H11.1388C11.593 26.9999 11.9612 26.6259 11.9612 26.1646V19.0998H16.003V26.1646C16.003 26.6259 16.3712 27 16.8254 27H23.7022C24.1563 27 24.5246 26.626 24.5245 26.1646V14.529H26.5288C27.1256 14.529 27.6505 14.1637 27.8661 13.5985C28.0815 13.0331 27.9358 12.404 27.4946 11.9956ZM23.7022 12.8582C23.248 12.8582 22.8798 13.2322 22.8798 13.6936V25.3292H17.6478V18.2644C17.6478 17.8031 17.2796 17.429 16.8254 17.429H11.1388C10.6847 17.429 10.3165 17.803 10.3165 18.2644V25.3292H5.08408V13.6936C5.08408 13.2323 4.7159 12.8582 4.2617 12.8582H1.97961L13.9822 1.74864L18.0696 5.53197C18.3103 5.75478 18.6578 5.8122 18.9557 5.67866C19.2536 5.54495 19.4458 5.24524 19.4458 4.91446V3.39388H23.4876V10.1779C23.4876 10.413 23.585 10.6371 23.7561 10.7954L25.9846 12.8582H23.7022Z" fill="#7C7C7C"/>
</svg>
