<svg width="50" height="50" viewBox="0 0 50 50" fill="none" xmlns="http://www.w3.org/2000/svg">
<path d="M38.3326 0H11.666C10.2877 0 9.16602 1.12168 9.16602 2.5C9.16602 3.87832 10.2877 5 11.666 5H38.3327C39.711 5 40.8327 3.87832 40.8327 2.5C40.8327 1.12168 39.7109 0 38.3326 0ZM38.3326 3.3333H11.666C11.2068 3.3333 10.8327 2.95996 10.8327 2.5C10.8327 2.04004 11.2068 1.6667 11.666 1.6667H38.3327C38.7919 1.6667 39.166 2.04004 39.166 2.5C39.166 2.95996 38.7918 3.3333 38.3326 3.3333Z" fill="white"/>
<path d="M38.3326 45H11.666C10.2877 45 9.16602 46.1217 9.16602 47.5C9.16602 48.8783 10.2877 50 11.666 50H38.3327C39.711 50 40.8327 48.8783 40.8327 47.5C40.8327 46.1217 39.7109 45 38.3326 45ZM38.3326 48.3333H11.666C11.2068 48.3333 10.8327 47.96 10.8327 47.5C10.8327 47.04 11.2068 46.6667 11.666 46.6667H38.3327C38.7919 46.6667 39.166 47.04 39.166 47.5C39.166 47.96 38.7918 48.3333 38.3326 48.3333Z" fill="white"/>
<path d="M30.9384 21.9067C35.17 17.6751 37.5 12.0492 37.5 6.06592V4.1668C37.5 3.70596 37.1267 3.3335 36.6667 3.3335H13.3333C12.8733 3.3335 12.5 3.70596 12.5 4.1668V6.06592C12.5 12.0501 14.83 17.6751 19.0608 21.9067L19.8983 22.7442C20.4925 23.3384 20.8333 24.1601 20.8333 25.0001C20.8333 25.8401 20.4925 26.6618 19.8991 27.256L19.0616 28.0935C14.83 32.3251 12.5 37.9501 12.5 43.9343V45.8334C12.5 46.2942 12.8733 46.6667 13.3333 46.6667H36.6666C37.1266 46.6667 37.4999 46.2942 37.4999 45.8334V43.9343C37.4999 37.951 35.1699 32.3251 30.9383 28.0935L30.1008 27.256C29.4982 26.6534 29.1666 25.8526 29.1666 25.0001C29.1666 24.1476 29.4982 23.3468 30.1008 22.7442L30.9384 21.9067ZM28.9225 21.5659C28.005 22.4826 27.5 23.7018 27.5 25.0001C27.5 26.2984 28.005 27.5176 28.9225 28.4343L29.76 29.2718C33.6767 33.1885 35.8333 38.3959 35.8333 43.9343V45.0001H14.1667V43.9343C14.1667 38.3951 16.3233 33.1885 20.2392 29.2718L21.0767 28.4343C21.995 27.5176 22.5 26.2976 22.5 25.0001C22.5 23.7026 21.995 22.4826 21.0775 21.5659L20.24 20.7284C16.3233 16.8117 14.1667 11.6042 14.1667 6.06592V5.0001H35.8334V6.06592C35.8334 11.6043 33.6768 16.8117 29.7601 20.7284L28.9225 21.5659Z" fill="white"/>
<path d="M32.0424 14.0389C31.9582 13.8273 31.6716 13.3331 30.8332 13.3331C26.5032 13.3331 24.574 12.4055 23.809 11.8522C22.8548 11.1614 21.6307 10.9805 20.5314 11.3697C19.4823 11.7405 18.714 12.5655 18.4248 13.6322C18.3498 13.9097 18.3364 14.0897 18.3364 14.0897C18.3239 14.2539 18.3598 14.4314 18.4406 14.5755C19.2215 15.9597 20.1223 17.4197 21.4189 18.7164L22.2556 19.5539C23.4881 20.7847 24.1664 22.423 24.1664 24.1664C24.1664 24.6272 24.5397 24.9997 24.9997 24.9997C25.4597 24.9997 25.833 24.6272 25.833 24.1664C25.833 22.4239 26.5113 20.7855 27.743 19.5539L28.5813 18.7155C28.7872 18.5105 29.0555 18.2572 29.3505 17.9805C31.5049 15.9547 32.4107 14.9689 32.0424 14.0389ZM28.2074 16.7665C27.8991 17.0573 27.6174 17.3223 27.4024 17.5373L26.5641 18.3756C25.9166 19.0223 25.3916 19.7589 24.999 20.5573C24.6065 19.7589 24.0815 19.0223 23.434 18.3756L22.5973 17.5381C21.5739 16.514 20.8248 15.3865 20.0456 14.0273C20.2515 13.3315 20.7848 13.0481 21.0873 12.9406C21.6689 12.7347 22.3215 12.8323 22.8314 13.2023C23.8931 13.9707 25.9864 14.8764 29.9965 14.9881C29.4815 15.5681 28.6732 16.329 28.2074 16.7665Z" fill="white"/>
<path d="M34.1096 42.435C33.9004 39.7333 32.8171 38.6116 31.5638 37.3116C31.3947 37.1357 31.218 36.9533 31.0372 36.76C29.9905 35.6416 28.5122 35 26.9796 35H23.0205C21.4888 35 20.0096 35.6417 18.9629 36.76C18.7821 36.9533 18.6063 37.135 18.4371 37.3108C17.1829 38.6108 16.0996 39.7333 15.8913 42.4358C15.8729 42.6675 15.9529 42.8958 16.1104 43.0667C16.2687 43.2367 16.4896 43.3334 16.722 43.3334H33.2787C33.5103 43.3334 33.732 43.2367 33.8903 43.0659C34.0479 42.895 34.1271 42.6658 34.1096 42.435ZM17.6712 41.6667C17.9538 40.2117 18.6271 39.515 19.6371 38.4684C19.8121 38.2867 19.9937 38.0976 20.1804 37.8983C20.9129 37.115 21.9479 36.6667 23.0205 36.6667H26.9796C28.053 36.6667 29.0879 37.1158 29.8205 37.8976C30.008 38.0992 30.1896 38.2867 30.3655 38.4692C31.3747 39.5159 32.0471 40.2126 32.3305 41.6667H17.6712Z" fill="white"/>
<path d="M24.9759 26.6665C24.5159 26.6665 24.1426 27.039 24.1426 27.4998V28.3331C24.1426 28.794 24.5159 29.1664 24.9759 29.1664C25.4358 29.1664 25.8092 28.794 25.8092 28.3331V27.4998C25.8092 27.039 25.4358 26.6665 24.9759 26.6665Z" fill="white"/>
<path d="M24.9759 30.8335C24.5159 30.8335 24.1426 31.206 24.1426 31.6668V32.5001C24.1426 32.9609 24.5159 33.3334 24.9759 33.3334C25.4358 33.3334 25.8092 32.9609 25.8092 32.5001V31.6668C25.8092 31.2061 25.4358 30.8335 24.9759 30.8335Z" fill="white"/>
</svg>
