<svg width="146" height="50" viewBox="0 0 146 50" fill="none" xmlns="http://www.w3.org/2000/svg">
<g clip-path="url(#clip0)">
<path fill-rule="evenodd" clip-rule="evenodd" d="M38.465 29.2175L26.1343 41.6616L22.2039 37.8768L31.0035 29.2796L38.465 29.2175Z" fill="#434343"/>
<path d="M29.9137 20.0702L21.2867 29.207L13.4583 29.2852L26.0453 16.3799L29.9137 20.0702Z" fill="#434343"/>
<path fill-rule="evenodd" clip-rule="evenodd" d="M2.76501 26.4445L25.2036 3.90063L31.8667 10.4909L9.69245 33.1858L2.76501 26.4445Z" fill="#7B7B7B"/>
<path fill-rule="evenodd" clip-rule="evenodd" d="M18.7834 42.2984L2.76501 26.4446L9.85161 26.5147L25.7135 42.1041L18.7834 42.2984Z" fill="#7B7B7B"/>
<path fill-rule="evenodd" clip-rule="evenodd" d="M25.7135 42.104L32.5088 48.7589L45.0904 35.7646L38.4759 29.2175L25.7135 42.104Z" fill="#7B7B7B"/>
<path fill-rule="evenodd" clip-rule="evenodd" d="M9.69788 26.4366L16.4392 19.8113L32.4063 35.336L25.7135 42.1042L9.69788 26.4366Z" fill="#BEBEBE"/>
<path fill-rule="evenodd" clip-rule="evenodd" d="M2.76501 26.4447L9.36874 19.8113H16.4391L9.7491 26.5121L2.76501 26.4447Z" fill="#A5A5A5"/>
<path fill-rule="evenodd" clip-rule="evenodd" d="M25.2037 3.90063L38.2924 16.7871L31.9288 23.2181L18.9884 10.1456L25.2037 3.90063Z" fill="#A5A5A5"/>
<path fill-rule="evenodd" clip-rule="evenodd" d="M25.4681 48.681L18.6917 42.1852L25.6245 41.991L32.4198 48.6486L25.4681 48.681Z" fill="#A5A5A5"/>
<path fill-rule="evenodd" clip-rule="evenodd" d="M38.2897 16.7871L45.263 16.8653L39.1502 23.0482L31.9288 23.2155L38.2897 16.7871Z" fill="#7B7B7B"/>
<path d="M38.2897 16.7871L25.2037 3.90063L32.1851 3.90333L45.263 16.8653" fill="#BEBEBE"/>
<path d="M2.99973 47.0031V38.5515H0V50.0001H11.4513V47.0031H2.99973Z" fill="#434343"/>
<path d="M2.99973 4.91501H11.4513V1.91528H0V13.3666H2.99973V4.91501Z" fill="#434343"/>
<path d="M51.8802 4.91232V13.8117H54.88V1.91528H43.4286V4.91232H51.8802Z" fill="#434343"/>
<path d="M51.8802 47.0002H43.4286V49.9999H54.88V38.1035H51.8802V47.0002Z" fill="#434343"/>
<path d="M58.6404 5.42213C58.6404 3.34229 60.232 1.8667 62.4008 1.8667C63.6633 1.8667 64.6776 2.32529 65.3439 3.15615L64.1111 4.27026C63.9228 4.01883 63.6785 3.81477 63.3975 3.67429C63.1165 3.53381 62.8067 3.46077 62.4926 3.46098C61.3704 3.46098 60.588 4.24328 60.588 5.41404C60.588 6.5848 61.3704 7.3698 62.4926 7.3698C62.8067 7.37001 63.1165 7.29697 63.3975 7.15649C63.6785 7.01601 63.9228 6.81195 64.1111 6.56052L65.3439 7.67463C64.6776 8.50549 63.6633 8.96408 62.4008 8.96408C60.232 8.98027 58.6404 7.50468 58.6404 5.42213Z" fill="#7B7B7B"/>
<path d="M71.419 7.51559H68.519L67.9795 8.84281H66.0049L69.0343 2.00439H70.9469L73.9763 8.84281H71.9639L71.419 7.51559ZM70.8525 6.08856L69.9731 3.89811L69.0936 6.08856H70.8525Z" fill="#7B7B7B"/>
<path d="M81.5241 4.53474C81.5241 6.08856 80.3507 7.0543 78.4839 7.0543H77.2916V8.84281H75.3574V2.00439H78.4839C80.3507 2.00439 81.5241 2.96744 81.5241 4.53474ZM79.5684 4.53474C79.5684 3.89811 79.1691 3.52854 78.3652 3.52854H77.2862V5.53016H78.3652C79.1691 5.53016 79.5792 5.16059 79.5792 4.53474H79.5684Z" fill="#7B7B7B"/>
<path d="M87.3752 7.51559H84.4834L83.9439 8.84281H81.9719L84.9905 2.00439H86.8977L89.9244 8.84281H87.912L87.3752 7.51559ZM86.8087 6.08856L85.9293 3.89811L85.0499 6.08856H86.8087Z" fill="#7B7B7B"/>
<path d="M96.4823 3.53663H94.3917V8.84281H92.4845V3.53663H90.3831V2.00439H96.4823V3.53663Z" fill="#7B7B7B"/>
<path d="M97.4373 5.42214C97.4373 3.37196 99.0558 1.8667 101.241 1.8667C103.426 1.8667 105.042 3.37196 105.042 5.42214C105.042 7.47231 103.423 8.98027 101.241 8.98027C99.0585 8.98027 97.4373 7.47501 97.4373 5.42214ZM103.086 5.42214C103.086 4.24059 102.277 3.46907 101.241 3.46907C100.205 3.46907 99.393 4.24059 99.393 5.42214C99.393 6.60368 100.202 7.3779 101.241 7.3779C102.279 7.3779 103.086 6.60638 103.086 5.42214Z" fill="#7B7B7B"/>
<path d="M112.905 6.88975C112.905 8.09018 111.948 8.84281 110.189 8.84281H106.682V2.00439H110.003C111.635 2.00439 112.592 2.64912 112.592 3.78211C112.6 4.09304 112.516 4.39926 112.351 4.66294C112.186 4.92662 111.947 5.1362 111.664 5.26579C112.458 5.52206 112.905 6.06968 112.905 6.88975ZM108.589 4.73167H109.819C110.359 4.73167 110.642 4.50777 110.642 4.05727C110.642 3.60677 110.372 3.38287 109.819 3.38287H108.589V4.73167ZM110.952 6.74408C110.952 6.27469 110.669 6.0481 110.111 6.0481H108.587V7.45624H110.111C110.669 7.45624 110.952 7.21076 110.952 6.74408Z" fill="#7B7B7B"/>
<path d="M114.127 5.42213C114.127 3.34229 115.719 1.8667 117.888 1.8667C119.15 1.8667 120.165 2.32529 120.831 3.15615L119.598 4.27026C119.41 4.01883 119.165 3.81477 118.884 3.67429C118.603 3.53381 118.294 3.46077 117.979 3.46098C116.855 3.46098 116.072 4.24328 116.072 5.41404C116.072 6.5848 116.855 7.3698 117.979 7.3698C118.294 7.37001 118.603 7.29697 118.884 7.15649C119.165 7.01601 119.41 6.81195 119.598 6.56052L120.831 7.67463C120.165 8.50549 119.15 8.96408 117.888 8.96408C115.727 8.98027 114.127 7.50468 114.127 5.42213Z" fill="#7B7B7B"/>
<path d="M125.069 6.22614H124.189V8.84281H122.266V2.00439H124.189V4.66153H125.117L126.749 2.00439H128.783L126.644 5.30626L128.802 8.84281H126.623L125.069 6.22614Z" fill="#7B7B7B"/>
<path d="M130.024 2.00439H131.929V6.01842L134.761 2.00439H136.579V8.84281H134.675V4.83687L131.861 8.84281H130.024V2.00439Z" fill="#7B7B7B"/>
<path d="M138.657 2.00432H140.545V6.01834L143.38 2.00432H145.198V8.84273H143.291V4.83679L140.477 8.84273H138.657V2.00432ZM139.911 0H141.211C141.211 0.450499 141.424 0.6744 141.915 0.6744C142.406 0.6744 142.627 0.450499 142.638 0H143.936C143.936 1.02509 143.332 1.59158 141.915 1.59158C140.499 1.59158 139.911 1.02509 139.911 0Z" fill="#7B7B7B"/>
<path d="M70.6771 22.4116C70.6771 25.031 67.7475 26.5552 64.2676 26.5552C62.3339 26.5472 60.4283 26.092 58.6998 25.2252L59.8516 22.5276C61.0906 23.1456 62.4542 23.4731 63.8387 23.4853C65.4788 23.4853 66.7683 22.9458 66.7683 21.8829C66.7683 21.044 65.9887 20.6933 64.8935 20.6933H61.3866V17.8581H64.5697C65.6245 17.8581 66.2126 17.4103 66.2126 16.7062C66.2126 15.7863 65.1767 15.3197 63.8279 15.3197C62.5599 15.3415 61.315 15.6622 60.1942 16.2557L59.0774 13.3261C60.5812 12.6236 62.2221 12.2633 63.8819 12.2714C67.2053 12.2714 70.1349 13.7173 70.1349 16.2557C70.1362 16.8679 69.9601 17.4674 69.6279 17.9816C69.2956 18.4958 68.8214 18.9026 68.2628 19.1529C69.768 19.714 70.6771 20.9064 70.6771 22.4116Z" fill="#434343"/>
<path d="M85.0688 23.6042H79.2851L78.2061 26.2613H74.2622L80.2994 12.5845H84.1111L90.1673 26.2613H86.1424L85.0688 23.6042ZM83.9331 20.7501L82.177 16.3746L80.4181 20.7501H83.9331Z" fill="#434343"/>
<path d="M107.033 22.3525C107.033 24.756 105.117 26.2613 101.6 26.2613H94.5859V12.5845H101.227C104.492 12.5845 106.407 13.8739 106.407 16.1399C106.421 16.7616 106.252 17.3738 105.922 17.901C105.593 18.4282 105.116 18.8475 104.551 19.1073C106.132 19.6171 107.033 20.7123 107.033 22.3525ZM98.4003 18.0552H100.863C101.957 18.0552 102.503 17.6056 102.503 16.7064C102.503 15.827 101.964 15.3576 100.863 15.3576H98.4003V18.0552ZM103.129 22.0611C103.129 21.1224 102.563 20.6719 101.449 20.6719H98.4003V23.4855H101.449C102.557 23.4855 103.124 22.9972 103.124 22.0611H103.129Z" fill="#434343"/>
<path d="M111.098 19.4229C111.098 15.3198 114.335 12.3093 118.697 12.3093C123.059 12.3093 126.299 15.3198 126.299 19.4229C126.299 23.5259 123.075 26.5338 118.694 26.5338C114.314 26.5338 111.098 23.5259 111.098 19.4229ZM122.39 19.4229C122.39 17.0571 120.772 15.5141 118.697 15.5141C116.623 15.5141 115.004 17.0571 115.004 19.4229C115.004 21.7887 116.623 23.329 118.697 23.329C120.772 23.329 122.39 21.786 122.39 19.4229Z" fill="#434343"/>
<path d="M145.527 23.1995V29.0209H141.991V26.2613H133.237V29.0155H129.682V23.1995H130.17C131.907 23.159 132.358 20.4641 132.495 16.8089L132.652 12.5898H143.671V23.1995H145.527ZM134.683 23.1995H139.86V15.6462H135.935L135.875 17.1299C135.778 19.814 135.484 22.0395 134.683 23.1995Z" fill="#434343"/>
<path d="M58.6269 35.7242C58.6269 33.728 60.1537 32.3118 62.2363 32.3118C63.4448 32.3118 64.4186 32.7542 65.058 33.55L63.8764 34.629C63.6951 34.3902 63.4609 34.1965 63.1923 34.0631C62.9237 33.9297 62.6279 33.8603 62.328 33.8602C61.249 33.8602 60.5017 34.6101 60.5017 35.7485C60.5017 36.8869 61.2517 37.6233 62.328 37.6233C62.6279 37.6232 62.9237 37.5538 63.1923 37.4204C63.4609 37.2871 63.6951 37.0934 63.8764 36.8545L65.058 37.9336C64.4186 38.7429 63.4394 39.1718 62.2363 39.1718C60.1564 39.1367 58.6269 37.7205 58.6269 35.7242Z" fill="#7B7B7B"/>
<path d="M71.168 33.917H69.161V39.0046H67.3347V33.917H65.3196V32.4441H71.168V33.917Z" fill="#7B7B7B"/>
<path d="M77.9822 34.8719C77.9822 36.361 76.8573 37.2998 75.0688 37.2998H73.9142V39.0154H72.0583V32.4441H75.058C76.8573 32.4441 77.9822 33.3721 77.9822 34.8719ZM76.1074 34.8719C76.1074 34.2623 75.7243 33.9062 74.9555 33.9062H73.9142V35.8269H74.9447C75.7243 35.8269 76.1074 35.4708 76.1074 34.8719Z" fill="#7B7B7B"/>
<path d="M78.5352 35.7242C78.5352 33.755 80.0836 32.3118 82.1824 32.3118C84.2811 32.3118 85.8295 33.755 85.8295 35.7242C85.8295 37.6935 84.2811 39.1367 82.1824 39.1367C80.0836 39.1367 78.5352 37.6935 78.5352 35.7242ZM83.9547 35.7242C83.9547 34.5912 83.1751 33.8359 82.1824 33.8359C81.1896 33.8359 80.41 34.5778 80.41 35.7242C80.41 36.8707 81.1896 37.5991 82.1824 37.5991C83.1751 37.5991 83.9547 36.8599 83.9547 35.7242Z" fill="#7B7B7B"/>
<path d="M87 32H88.829V35.8522L91.5266 32H93.2692V38.5606H91.4429V34.7192L88.7453 38.5606H87V32Z" fill="#7B7B7B"/>
<path d="M99.8894 33.917H97.8824V39.0046H96.0561V33.917H94.041V32.4441H99.8894V33.917Z" fill="#7B7B7B"/>
<path d="M106.056 37.5722V39.0046H100.79V32.4441H105.935V33.8792H102.627V34.9852H105.541V36.3718H102.627V37.5722H106.056Z" fill="#7B7B7B"/>
<path d="M113.283 32.4441V39.0046H111.457V33.917H109.568L109.531 34.996C109.447 37.5533 109.102 39.1287 107.432 39.1287C107.147 39.1246 106.863 39.0866 106.588 39.0154L106.693 37.4967C106.775 37.5159 106.859 37.5258 106.944 37.5264C107.704 37.5264 107.845 36.5498 107.901 35.0689L107.996 32.4549L113.283 32.4441Z" fill="#7B7B7B"/>
<path d="M120.604 36.6712C120.604 38.2089 119.544 39.0046 117.839 39.0046H114.737V32.4441H116.563V34.5293H118.082C119.676 34.5293 120.604 35.2388 120.604 36.6712ZM118.74 36.709C118.74 36.0912 118.346 35.8566 117.718 35.8566H116.563V37.6747H117.718C118.336 37.6747 118.74 37.3267 118.74 36.709Z" fill="#7B7B7B"/>
<path d="M127.831 32.4441V39.0046H125.978V36.4473H123.447V39.0046H121.592V32.4441H123.447V34.9097H125.978V32.4441H127.831Z" fill="#7B7B7B"/>
<path d="M135.15 36.6712C135.15 38.2089 134.09 39.0046 132.385 39.0046H129.282V32.4441H131.103V34.5293H132.622C134.224 34.5293 135.15 35.2388 135.15 36.6712ZM133.283 36.709C133.283 36.0912 132.889 35.8566 132.263 35.8566H131.103V37.6747H132.258C132.884 37.6747 133.286 37.3267 133.286 36.709H133.283ZM135.87 32.4441H137.699V39.0046H135.87V32.4441Z" fill="#7B7B7B"/>
<path d="M140.796 32.4361L141.967 34.2165L143.129 32.4361H145.287L143.129 35.5761L145.471 39.0047H143.288L141.967 37.0652L140.656 39.0047H138.516L140.852 35.6597L138.667 32.4226L140.796 32.4361Z" fill="#7B7B7B"/>
<path d="M65.236 49.6358V46.0103L63.4772 48.9614H62.6166L60.8578 46.0885V49.6358H59.0774V42.7839H60.669L63.0752 46.7332L65.4195 42.7839H67.011L67.0326 49.625L65.236 49.6358Z" fill="#7B7B7B"/>
<path d="M74.3997 48.287H71.5079L70.9684 49.617H68.9938L72.0259 42.7839H73.9142L76.949 49.6358H74.9366L74.3997 48.287ZM73.8333 46.8627L72.9538 44.6723L72.0744 46.8627H73.8333Z" fill="#7B7B7B"/>
<path d="M84.1031 44.3189H82.007V49.6358H80.1187V44.3189H78.0173V42.7839H84.1166L84.1031 44.3189Z" fill="#7B7B7B"/>
<path d="M91.6833 48.1306V49.6358H86.1937V42.7839H91.5565V44.2811H88.109V45.433H91.1465V46.8789H88.109V48.1306H91.6833Z" fill="#7B7B7B"/>
<path d="M100.156 45.3197C100.156 46.8735 98.983 47.8392 97.1163 47.8392H95.9239V49.6358H93.9897V42.7839H97.1136C98.983 42.7839 100.156 43.7524 100.156 45.3197ZM98.1926 45.3197C98.1926 44.683 97.7933 44.3108 96.9922 44.3108H95.9131V46.3151H96.9922C97.8014 46.3124 98.1926 45.9401 98.1926 45.3197Z" fill="#7B7B7B"/>
<path d="M102.239 42.7839H104.127V46.8007L106.952 42.7839H108.77V49.6358H106.865V45.6191L104.055 49.6358H102.239V42.7839Z" fill="#7B7B7B"/>
<path d="M116.159 48.2871H113.267L112.727 49.617H110.753L113.771 42.7759H115.678L118.711 49.6359H116.695L116.159 48.2871ZM115.592 46.8627L114.713 44.6723L113.839 46.8708L115.592 46.8627Z" fill="#7B7B7B"/>
<path d="M127.151 42.7839V49.6358H125.247V44.3189H123.28L123.243 45.433C123.154 48.1009 122.792 49.7491 121.055 49.7491C120.758 49.7445 120.463 49.7046 120.175 49.6304L120.281 48.0469C120.369 48.0677 120.46 48.0777 120.55 48.0766C121.343 48.0766 121.489 47.0596 121.548 45.5166L121.646 42.7893L127.151 42.7839Z" fill="#7B7B7B"/>
<path d="M129.377 46.2044C129.377 44.1542 130.995 42.6489 133.18 42.6489C135.366 42.6489 136.981 44.1542 136.981 46.2044C136.981 48.2545 135.363 49.7625 133.18 49.7625C130.998 49.7625 129.377 48.2572 129.377 46.2044ZM135.026 46.2044C135.026 45.0228 134.216 44.2513 133.18 44.2513C132.145 44.2513 131.333 45.0228 131.333 46.2044C131.333 47.3859 132.142 48.1601 133.18 48.1601C134.219 48.1601 135.026 47.3886 135.026 46.2044Z" fill="#7B7B7B"/>
<path d="M145.441 47.672C145.441 48.8724 144.483 49.625 142.725 49.625H139.218V42.7839H142.538C144.17 42.7839 145.128 43.4314 145.128 44.5643C145.135 44.8753 145.051 45.1815 144.886 45.4452C144.721 45.7089 144.483 45.9184 144.2 46.048C144.993 46.3016 145.441 46.8492 145.441 47.672ZM141.125 45.5139H142.358C142.897 45.5139 143.167 45.2873 143.167 44.8395C143.167 44.3917 142.897 44.1651 142.358 44.1651H141.125V45.5139ZM143.491 47.5155C143.491 47.0461 143.221 46.8222 142.649 46.8222H141.125V48.2304H142.649C143.205 48.2385 143.488 47.993 143.488 47.5236L143.491 47.5155Z" fill="#7B7B7B"/>
</g>
<defs>
<clipPath id="clip0">
<rect width="145.527" height="50" fill="white"/>
</clipPath>
</defs>
</svg>
