<svg width="45" height="45" viewBox="0 0 45 45" fill="none" xmlns="http://www.w3.org/2000/svg">
<circle cx="22.5" cy="22.5" r="22.5" fill="#404040"/>
<circle cx="22.5" cy="22.5" r="11.5" stroke="white" stroke-width="2"/>
<path d="M22.4984 20.3324C21.3048 20.3324 20.3308 21.3064 20.3308 22.5C20.3308 23.6936 21.3048 24.6676 22.4984 24.6676C23.6919 24.6676 24.666 23.6936 24.666 22.5C24.666 21.3064 23.6919 20.3324 22.4984 20.3324ZM28.9995 22.5C28.9995 21.6024 29.0076 20.7129 28.9572 19.8169C28.9068 18.7762 28.6694 17.8526 27.9084 17.0916C27.1458 16.329 26.2238 16.0932 25.1831 16.0428C24.2855 15.9924 23.396 16.0005 22.5 16.0005C21.6024 16.0005 20.7129 15.9924 19.8169 16.0428C18.7762 16.0932 17.8526 16.3306 17.0916 17.0916C16.329 17.8542 16.0932 18.7762 16.0428 19.8169C15.9924 20.7145 16.0005 21.604 16.0005 22.5C16.0005 23.396 15.9924 24.2871 16.0428 25.1831C16.0932 26.2238 16.3306 27.1474 17.0916 27.9084C17.8542 28.671 18.7762 28.9068 19.8169 28.9572C20.7145 29.0076 21.604 28.9995 22.5 28.9995C23.3976 28.9995 24.2871 29.0076 25.1831 28.9572C26.2238 28.9068 27.1474 28.6694 27.9084 27.9084C28.671 27.1458 28.9068 26.2238 28.9572 25.1831C29.0093 24.2871 28.9995 23.3976 28.9995 22.5ZM22.4984 25.8351C20.6528 25.8351 19.1632 24.3456 19.1632 22.5C19.1632 20.6544 20.6528 19.1649 22.4984 19.1649C24.344 19.1649 25.8335 20.6544 25.8335 22.5C25.8335 24.3456 24.344 25.8351 22.4984 25.8351ZM25.9701 19.8072C25.5392 19.8072 25.1912 19.4592 25.1912 19.0283C25.1912 18.5974 25.5392 18.2494 25.9701 18.2494C26.401 18.2494 26.749 18.5974 26.749 19.0283C26.7491 19.1306 26.7291 19.2319 26.69 19.3265C26.6509 19.4211 26.5935 19.507 26.5211 19.5793C26.4488 19.6517 26.3629 19.7091 26.2683 19.7482C26.1738 19.7873 26.0724 19.8073 25.9701 19.8072Z" fill="white"/>
</svg>
