<svg width="25" height="25" viewBox="0 0 25 25" fill="none" xmlns="http://www.w3.org/2000/svg">
<path d="M12.4966 6.08618C8.94743 6.08618 6.08305 8.95056 6.08305 12.4998C6.08305 16.049 8.94743 18.9134 12.4966 18.9134C16.0458 18.9134 18.9102 16.049 18.9102 12.4998C18.9102 8.95056 16.0458 6.08618 12.4966 6.08618ZM12.4966 16.6681C10.2014 16.6681 8.32828 14.795 8.32828 12.4998C8.32828 10.2045 10.2014 8.3314 12.4966 8.3314C14.7919 8.3314 16.665 10.2045 16.665 12.4998C16.665 14.795 14.7919 16.6681 12.4966 16.6681ZM19.1729 4.32877C18.3442 4.32877 17.675 4.99796 17.675 5.82663C17.675 6.6553 18.3442 7.32449 19.1729 7.32449C20.0016 7.32449 20.6708 6.65843 20.6708 5.82663C20.671 5.62986 20.6324 5.43497 20.5572 5.25313C20.4821 5.07129 20.3717 4.90607 20.2326 4.76694C20.0935 4.6278 19.9282 4.51748 19.7464 4.44229C19.5646 4.3671 19.3697 4.32853 19.1729 4.32877V4.32877ZM24.9986 12.4998C24.9986 10.7736 25.0142 9.06313 24.9173 7.34013C24.8204 5.33881 24.3638 3.56264 22.9004 2.09918C21.4338 0.632595 19.6607 0.179172 17.6594 0.0822335C15.9333 -0.0147052 14.2228 0.000930124 12.4998 0.000930124C10.7736 0.000930124 9.06313 -0.0147052 7.34013 0.0822335C5.33881 0.179172 3.56265 0.635722 2.09918 2.09918C0.632595 3.56577 0.179172 5.33881 0.0822335 7.34013C-0.0147052 9.06626 0.000930124 10.7768 0.000930124 12.4998C0.000930124 14.2228 -0.0147052 15.9364 0.0822335 17.6594C0.179172 19.6607 0.635722 21.4369 2.09918 22.9003C3.56577 24.3669 5.33881 24.8204 7.34013 24.9173C9.06626 25.0142 10.7768 24.9986 12.4998 24.9986C14.2259 24.9986 15.9364 25.0142 17.6594 24.9173C19.6607 24.8204 21.4369 24.3638 22.9004 22.9003C24.3669 21.4338 24.8204 19.6607 24.9173 17.6594C25.0174 15.9364 24.9986 14.2259 24.9986 12.4998V12.4998ZM22.2468 19.8734C22.0185 20.4425 21.7433 20.8678 21.3024 21.3056C20.8615 21.7465 20.4394 22.0216 19.8702 22.2499C18.2254 22.9035 14.3197 22.7565 12.4966 22.7565C10.6736 22.7565 6.76475 22.9035 5.11992 22.2531C4.55079 22.0248 4.12552 21.7496 3.68773 21.3087C3.24681 20.8678 2.97163 20.4456 2.74336 19.8765C2.09293 18.2285 2.2399 14.3228 2.2399 12.4998C2.2399 10.6767 2.09293 6.76788 2.74336 5.12305C2.97163 4.55392 3.24681 4.12864 3.68773 3.69085C4.12864 3.25307 4.55079 2.97476 5.11992 2.74648C6.76475 2.09606 10.6736 2.24303 12.4966 2.24303C14.3197 2.24303 18.2285 2.09606 19.8734 2.74648C20.4425 2.97476 20.8678 3.24994 21.3056 3.69085C21.7465 4.13177 22.0216 4.55392 22.2499 5.12305C22.9004 6.76788 22.7534 10.6767 22.7534 12.4998C22.7534 14.3228 22.9004 18.2285 22.2468 19.8734Z" fill="#552225"/>
</svg>
