<svg width="25" height="25" viewBox="0 0 25 25" fill="none" xmlns="http://www.w3.org/2000/svg">
<circle cx="12.5" cy="12.5" r="11.5" stroke="#552225" stroke-width="2"/>
<path d="M12.4984 10.3324C11.3048 10.3324 10.3308 11.3064 10.3308 12.5C10.3308 13.6936 11.3048 14.6676 12.4984 14.6676C13.6919 14.6676 14.666 13.6936 14.666 12.5C14.666 11.3064 13.6919 10.3324 12.4984 10.3324ZM18.9995 12.5C18.9995 11.6024 19.0076 10.7129 18.9572 9.81694C18.9068 8.77623 18.6694 7.85261 17.9084 7.0916C17.1458 6.32896 16.2238 6.09317 15.1831 6.04276C14.2855 5.99235 13.396 6.00048 12.5 6.00048C11.6024 6.00048 10.7129 5.99235 9.81694 6.04276C8.77623 6.09317 7.85261 6.33058 7.0916 7.0916C6.32896 7.85424 6.09317 8.77623 6.04276 9.81694C5.99235 10.7145 6.00048 11.604 6.00048 12.5C6.00048 13.396 5.99235 14.2871 6.04276 15.1831C6.09317 16.2238 6.33058 17.1474 7.0916 17.9084C7.85424 18.671 8.77623 18.9068 9.81694 18.9572C10.7145 19.0076 11.604 18.9995 12.5 18.9995C13.3976 18.9995 14.2871 19.0076 15.1831 18.9572C16.2238 18.9068 17.1474 18.6694 17.9084 17.9084C18.671 17.1458 18.9068 16.2238 18.9572 15.1831C19.0093 14.2871 18.9995 13.3976 18.9995 12.5V12.5ZM12.4984 15.8351C10.6528 15.8351 9.16325 14.3456 9.16325 12.5C9.16325 10.6544 10.6528 9.16487 12.4984 9.16487C14.344 9.16487 15.8335 10.6544 15.8335 12.5C15.8335 14.3456 14.344 15.8351 12.4984 15.8351ZM15.9701 9.80718C15.5392 9.80718 15.1912 9.4592 15.1912 9.02828C15.1912 8.59736 15.5392 8.24938 15.9701 8.24938C16.401 8.24938 16.749 8.59736 16.749 9.02828C16.7491 9.1306 16.7291 9.23195 16.69 9.3265C16.6509 9.42106 16.5935 9.50698 16.5211 9.57933C16.4488 9.65169 16.3629 9.70905 16.2683 9.74815C16.1738 9.78725 16.0724 9.80731 15.9701 9.80718V9.80718Z" fill="#552225"/>
</svg>
