<svg width="54" height="15" viewBox="0 0 54 15" fill="none" xmlns="http://www.w3.org/2000/svg">
<path fill-rule="evenodd" clip-rule="evenodd" d="M14.4043 2.85387e-07V0.00655049C14.3977 0.00655049 12.3163 2.49871e-07 11.7613 1.97161C11.2525 3.77947 9.8187 8.77073 9.77906 8.90828H9.38261C9.38261 8.90828 7.91575 3.80567 7.40037 1.96506C6.84534 -0.00654998 4.75738 2.85387e-07 4.75738 2.85387e-07H0V15H4.75738V6.09169H4.9556H5.15383L7.92897 15H11.2327L14.0078 6.09824H14.4043V15H19.1617V2.85387e-07H14.4043Z" fill="#8A8A8A"/>
<path fill-rule="evenodd" clip-rule="evenodd" d="M31.7819 0C31.7819 0 30.3877 0.124454 29.7336 1.57205L26.3638 8.90828H25.9673V0H21.21V15H25.703C25.703 15 27.1633 14.869 27.8174 13.4279L31.1212 6.09169H31.5176V15H36.275V0H31.7819Z" fill="#8A8A8A"/>
<path fill-rule="evenodd" clip-rule="evenodd" d="M38.3892 6.81201V14.9998H43.1465V10.2181H48.3004C50.5469 10.2181 52.4499 8.79672 53.1569 6.81201H38.3892Z" fill="#8A8A8A"/>
<path fill-rule="evenodd" clip-rule="evenodd" d="M48.3002 0H37.7217C38.2503 2.85589 40.4109 5.14846 43.2059 5.89519C43.8402 6.06549 44.5076 6.15719 45.1947 6.15719H53.3483C53.421 5.81658 53.4541 5.46942 53.4541 5.10916C53.4541 2.28602 51.1481 0 48.3002 0Z" fill="#8A8A8A"/>
</svg>
