<svg width="52" height="49" viewBox="0 0 52 49" fill="none" xmlns="http://www.w3.org/2000/svg">
<path d="M50.839 31.0764L44.1768 23.6901L50.839 16.3038C51.2525 15.8453 51.2525 15.1097 50.839 14.6513C50.4174 14.1838 49.7286 14.1838 49.307 14.6513L42.6656 22.0145L36.0242 14.6513C35.6026 14.1838 34.9138 14.1838 34.4922 14.6513C34.0787 15.1097 34.0787 15.8453 34.4922 16.3038L41.1543 23.6901L34.4922 31.0764C34.0787 31.5349 34.0787 32.2704 34.4922 32.7289C34.7005 32.9599 34.9777 33.0792 35.2582 33.0792C35.5387 33.0792 35.8159 32.9599 36.0242 32.7289L42.6656 25.3656L49.307 32.7289C49.5153 32.9599 49.7925 33.0792 50.073 33.0792C50.3535 33.0792 50.6307 32.9599 50.839 32.7289C51.2525 32.2704 51.2525 31.5349 50.839 31.0764Z" fill="white" stroke="white" stroke-width="0.3"/>
<path d="M24.3559 47.996C24.835 48.3165 25.3683 48.4789 25.9037 48.4789H25.904C26.4117 48.4778 26.9168 48.3329 27.3795 48.0434L27.3796 48.0433C28.353 47.4341 28.9278 46.3259 28.9278 45.088V4.34549C28.9278 3.10759 28.353 1.99947 27.3797 1.38918C26.4267 0.791046 25.2929 0.810772 24.3563 1.43621C24.3055 1.46936 24.258 1.5078 24.2156 1.54774L11.7129 13.2745H1.92593C1.31686 13.2745 0.85 13.8154 0.85 14.451V33.9559C0.85 34.2639 0.959551 34.5612 1.16018 34.7824C1.36049 35.0033 1.63414 35.1324 1.92593 35.1324H1.926L11.6871 35.1273L24.1827 47.8529C24.2363 47.9075 24.2944 47.9553 24.3559 47.996ZM24.3559 47.996C24.3558 47.9959 24.3556 47.9958 24.3554 47.9957L24.4388 47.8712L24.3561 47.9961C24.3561 47.9961 24.356 47.996 24.3559 47.996ZM26.7759 45.088C26.7759 45.4858 26.596 45.8234 26.31 46.0029C26.1863 46.0798 25.8945 46.2159 25.5553 46.0357L13.187 33.4388V28.823C13.187 28.1874 12.7202 27.6465 12.1111 27.6465C11.502 27.6465 11.0352 28.1874 11.0352 28.823V32.7753L3.00185 32.7792V15.6276H11.0352V19.5839C11.0352 20.2195 11.502 20.7605 12.1111 20.7605C12.7202 20.7605 13.187 20.2195 13.187 19.5839V14.9923L25.5388 3.40755C25.8867 3.21306 26.1854 3.3537 26.31 3.43159C26.5961 3.61118 26.7759 3.94788 26.7759 4.34549V45.088Z" fill="white" stroke="white" stroke-width="0.3"/>
</svg>
