<svg width="29" height="30" viewBox="0 0 29 30" fill="none" xmlns="http://www.w3.org/2000/svg">
<path d="M28.5178 4.39074L14.7368 0.0366037C14.5835 -0.0122012 14.4165 -0.0122012 14.2632 0.0366037L0.482196 4.39074C0.341214 4.43532 0.219039 4.51858 0.132631 4.62896C0.0462219 4.73935 -0.000133618 4.87139 2.89296e-07 5.00674V24.9924C-0.000133618 25.1277 0.0462219 25.2598 0.132631 25.3702C0.219039 25.4806 0.341214 25.5638 0.482196 25.6084L14.2645 29.9625H14.2665C14.4188 30.0125 14.5857 30.0125 14.738 29.9625L28.5178 25.6084C28.6588 25.5638 28.781 25.4806 28.8674 25.3702C28.9538 25.2598 29.0001 25.1277 29 24.9924V5.00674C29.0001 4.87139 28.9538 4.73935 28.8674 4.62896C28.781 4.51858 28.6588 4.43532 28.5178 4.39074ZM14.5 1.34314L26.0961 5.00674L24.0633 5.64883L12.4672 1.98523L14.5 1.34314ZM10.2811 2.67577L21.8772 6.33937L19.063 7.22816L7.47054 3.56456L10.2811 2.67577ZM19.784 8.38191L23.344 7.25723V12.072L21.876 11.431C21.7325 11.3684 21.5702 11.3507 21.4145 11.3806C21.2587 11.4105 21.1183 11.4865 21.0152 11.5965L19.782 12.9123L19.784 8.38191ZM5.28237 4.25509L16.8781 7.91907L14.5 8.66997L2.90386 5.00674L5.28237 4.25509ZM1.43754 5.9246L13.7806 9.82372V28.429L1.43754 24.5292V5.9246ZM15.2194 28.429V9.82372L18.3436 8.83655V14.6873C18.3427 14.8213 18.3875 14.9523 18.4717 15.0625C18.5559 15.1727 18.6755 15.2566 18.8142 15.303C18.9529 15.3493 19.104 15.3558 19.247 15.3215C19.3899 15.2872 19.5177 15.2138 19.613 15.1114L21.7506 12.8251L23.7493 13.6971C23.8589 13.7449 23.9802 13.7668 24.1017 13.7606C24.2232 13.7544 24.341 13.7204 24.4441 13.6617C24.5471 13.6031 24.6321 13.5217 24.691 13.4251C24.75 13.3286 24.781 13.2201 24.7811 13.1098V6.80109L27.5608 5.92311V24.5292L15.2194 28.429Z" fill="#824C4F"/>
</svg>
