<svg width="20" height="20" viewBox="0 0 20 20" fill="none" xmlns="http://www.w3.org/2000/svg">
<circle cx="10" cy="10" r="10" fill="#DFC3C7"/>
<path d="M6.5625 7.54125H8.2125C8.2125 6.565 8.785 5.81125 9.9125 5.81125C10.7688 5.81125 11.5538 6.24 11.5538 7.27125C11.5538 8.065 11.0863 8.43 10.3475 8.985C9.50625 9.59625 8.84 10.31 8.8875 11.4687L8.89625 12.0475H10.53V11.6037C10.53 10.7062 10.8713 10.445 11.7925 9.74625C12.5538 9.1675 13.3475 8.525 13.3475 7.17625C13.3475 5.2875 11.7525 4.375 10.0063 4.375C8.34875 4.375 6.52375 5.18375 6.56375 7.54125H6.5625ZM8.515 14.4362C8.515 15.1025 9.04625 15.595 9.7775 15.595C10.5388 15.595 11.0625 15.1025 11.0625 14.4362C11.0625 13.7462 10.5375 13.2612 9.77625 13.2612C9.04625 13.2612 8.515 13.7462 8.515 14.4362Z" fill="white"/>
</svg>
