<svg width="50" height="50" viewBox="0 0 50 50" fill="none" xmlns="http://www.w3.org/2000/svg">
<g clip-path="url(#clip0)">
<path d="M36.7188 5.85938C35.9973 5.85938 35.3212 6.05674 34.7406 6.39932C34.5228 4.45029 32.8656 2.92969 30.8594 2.92969C30.1379 2.92969 29.4618 3.12705 28.8812 3.46963C28.6634 1.52061 27.0062 0 25 0C22.9937 0 21.3366 1.52061 21.1187 3.46963C20.5382 3.12705 19.8622 2.92969 19.1406 2.92969C16.9867 2.92969 15.2344 4.68203 15.2344 6.83594V12.3369C15.2344 12.3369 13.2866 12.3047 13.2812 12.3047C12.8615 12.3047 12.4879 12.5731 12.3548 12.9725L9.4251 21.7615C9.3082 22.1124 9.39951 22.4993 9.66103 22.7608L18.1641 31.264V35.7422H16.2109C15.6717 35.7422 15.2344 36.1795 15.2344 36.7188C15.2344 37.258 15.6717 37.6953 16.2109 37.6953H18.1641V41.8945H16.2109C15.6717 41.8945 15.2344 42.3318 15.2344 42.8711C15.2344 43.4104 15.6717 43.8477 16.2109 43.8477H18.1641V49.0234C18.1641 49.5627 18.6014 50 19.1406 50H23.5352C24.0744 50 24.5117 49.5627 24.5117 49.0234C24.5117 48.4842 24.0744 48.0469 23.5352 48.0469H20.1172V43.8477H35.7422V48.0469H32.3242C31.785 48.0469 31.3477 48.4842 31.3477 49.0234C31.3477 49.5627 31.785 50 32.3242 50H36.7188C37.258 50 37.6953 49.5627 37.6953 49.0234V43.8477H39.6484C40.1877 43.8477 40.625 43.4104 40.625 42.8711C40.625 42.3318 40.1877 41.8945 39.6484 41.8945H37.6953V37.6953H39.6484C40.1877 37.6953 40.625 37.258 40.625 36.7188C40.625 36.1795 40.1877 35.7422 39.6484 35.7422H37.6953V31.2532C39.5877 29.2168 40.625 26.5812 40.625 23.7861C40.625 22.3055 40.625 11.2083 40.625 9.76562C40.625 7.61172 38.8727 5.85938 36.7188 5.85938ZM36.7188 7.8125C37.7957 7.8125 38.6719 8.68867 38.6719 9.76562V16.2109C38.6719 17.2879 37.7957 18.1641 36.7188 18.1641C35.6418 18.1641 34.7656 17.2879 34.7656 16.2109V9.76562C34.7656 8.68867 35.6418 7.8125 36.7188 7.8125ZM30.8594 4.88281C31.9363 4.88281 32.8125 5.75898 32.8125 6.83594V13.2812C32.8125 14.3582 31.9363 15.2344 30.8594 15.2344C29.7824 15.2344 28.9062 14.3582 28.9062 13.2812V6.83594C28.9062 5.75898 29.7824 4.88281 30.8594 4.88281ZM23.0469 3.90625C23.0469 2.8293 23.923 1.95312 25 1.95312C26.077 1.95312 26.9531 2.8293 26.9531 3.90625V13.2812C26.9531 13.5271 26.977 13.7674 27.0207 14.0007C25.938 13.3919 24.4406 13.0467 23.0469 12.8246C23.0469 11.9288 23.0469 4.9126 23.0469 3.90625ZM17.1875 6.83594C17.1875 5.75898 18.0637 4.88281 19.1406 4.88281C20.2176 4.88281 21.0937 5.75898 21.0937 6.83594V12.5715C20.3926 12.4995 19.6495 12.4413 18.8717 12.398C18.8431 12.3963 18.6352 12.3936 17.1875 12.3693V6.83594ZM35.7422 41.8945H20.1172V37.6953H35.7422V41.8945ZM36.0282 30.1688C35.8451 30.352 35.7422 30.6004 35.7422 30.8594V35.7422H20.1172V30.8594C20.1172 30.6004 20.0143 30.352 19.8312 30.1688L11.4688 21.8065L13.9812 14.2696L18.782 14.3491C20.0276 14.4189 26.6084 14.9695 26.6084 16.2108C26.6084 16.357 26.3182 16.7343 25.22 17.1161C23.8878 17.5791 21.8223 17.8994 19.0807 18.0682C18.554 18.1006 18.1483 18.5455 18.1646 19.073C18.1808 19.6003 18.613 20.0194 19.1406 20.0194C21.833 20.0194 24.0234 22.2099 24.0234 24.9022C24.0234 25.4415 24.4607 25.8788 25 25.8788C25.5393 25.8788 25.9766 25.4415 25.9766 24.9022C25.9766 22.7434 24.9705 20.8149 23.4028 19.5613C24.3673 19.3951 25.1888 19.1947 25.8613 18.961C27.5427 18.3766 28.4462 17.5257 28.5511 16.4299C29.1982 16.9057 29.9964 17.1875 30.8594 17.1875C31.5809 17.1875 32.2569 16.9901 32.8375 16.6476C33.0554 18.5966 34.7125 20.1172 36.7188 20.1172C37.43 20.1172 38.0969 19.9252 38.6719 19.5916V23.7861C38.6719 26.1974 37.733 28.4641 36.0282 30.1688Z" fill="white"/>
<path d="M27.9297 50C28.469 50 28.9062 49.5628 28.9062 49.0234C28.9062 48.4841 28.469 48.0469 27.9297 48.0469C27.3903 48.0469 26.9531 48.4841 26.9531 49.0234C26.9531 49.5628 27.3903 50 27.9297 50Z" fill="white"/>
</g>
<defs>
<clipPath id="clip0">
<rect width="50" height="50" fill="white"/>
</clipPath>
</defs>
</svg>
