<svg width="50" height="50" viewBox="0 0 50 50" fill="none" xmlns="http://www.w3.org/2000/svg">
<g clip-path="url(#clip0)">
<path d="M21.6467 41.6667C21.4332 37.4997 19.1342 33.7209 15.5317 31.6158L9.775 25.22C9.00073 24.3427 7.7999 23.9738 6.66667 24.265V13.3333C6.66667 11.4924 5.17427 10 3.33333 10C1.4924 10 0 11.4924 0 13.3333V29.1058C0.000833333 30.3809 0.325729 31.6349 0.944167 32.75L8.33333 46.0492V49.1667C8.33333 49.6269 8.70646 50 9.16667 50H20.8333C21.2935 50 21.6667 49.6269 21.6667 49.1667V41.6667H21.6467ZM20 48.3333H10V45.8333C10 45.6916 9.96385 45.5522 9.895 45.4283L2.40083 31.9392C1.92021 31.0721 1.6676 30.0972 1.66667 29.1058V13.3333C1.66667 12.4128 2.41281 11.6667 3.33333 11.6667C4.25385 11.6667 5 12.4128 5 13.3333V25.2942C3.95729 26.5059 3.98125 28.3048 5.05583 29.4883L11.8833 37L13.1167 35.8783L6.28917 28.3675C5.745 27.769 5.76698 26.8484 6.33917 26.2767C6.93021 25.6851 7.88896 25.6847 8.48052 26.2758C8.49979 26.2951 8.51844 26.3148 8.53667 26.335L14.3808 32.8283C14.4552 32.9031 14.5393 32.9676 14.6308 33.02C17.9474 34.9203 19.9951 38.4484 20 42.2708V48.3333Z" fill="white"/>
<path d="M46.6673 10C44.8264 10 43.334 11.4924 43.334 13.3333V24.265C43.0639 24.1967 42.786 24.1636 42.5073 24.1667C41.6338 24.1861 40.8075 24.5673 40.2257 25.2192L34.4707 31.6133C30.8633 33.7149 28.5622 37.497 28.354 41.6667H28.334V49.1667C28.334 49.6269 28.7071 50 29.1673 50H40.834C41.2942 50 41.6673 49.6269 41.6673 49.1667V46.0475L48.9648 32.8208C49.6426 31.6682 50.0002 30.3555 50.0007 29.0183V13.3333C50.0007 11.4924 48.5083 10 46.6673 10ZM48.334 29.0183C48.3327 30.0659 48.0508 31.0942 47.5173 31.9958L40.1007 45.4308C40.0339 45.5545 39.9995 45.6929 40.0007 45.8333V48.3333H30.0007V42.2708C30.0109 38.4335 32.076 34.8957 35.4123 33C35.4899 32.9559 35.56 32.8997 35.6198 32.8333L41.464 26.3333C42.0252 25.712 42.9839 25.6633 43.6052 26.2246C44.2266 26.7858 44.2752 27.7445 43.714 28.3658L36.884 35.8767L38.1173 37L44.9448 29.49C46.0204 28.3061 46.0443 26.5061 45.0007 25.2942V13.3333C45.0007 12.4128 45.7468 11.6667 46.6673 11.6667C47.5878 11.6667 48.334 12.4128 48.334 13.3333V29.0183Z" fill="white"/>
<path d="M34.9993 20.8333H33.3327C30.3433 20.8366 27.5436 22.2986 25.8327 24.75V19.1667H26.666C31.7261 19.1607 35.8267 15.0601 35.8327 10C35.8327 9.53979 35.4596 9.16667 34.9993 9.16667H33.3327C30.3433 9.1699 27.5436 10.632 25.8327 13.0833V7.5H26.666C30.3462 7.49583 33.3285 4.51354 33.3327 0.833333C33.3327 0.373125 32.9596 0 32.4993 0H30.8327C28.4058 0.00145833 26.1715 1.32167 24.9993 3.44667C23.8272 1.32167 21.5929 0.00145833 19.166 0H17.4993C17.0391 0 16.666 0.373125 16.666 0.833333C16.6702 4.51354 19.6525 7.49583 23.3327 7.5H24.166V13.0833C22.4551 10.632 19.6554 9.1699 16.666 9.16667H14.9993C14.5391 9.16667 14.166 9.53979 14.166 10C14.172 15.0601 18.2726 19.1607 23.3327 19.1667H24.166V24.75C22.4551 22.2986 19.6554 20.8366 16.666 20.8333H14.9993C14.5391 20.8333 14.166 21.2065 14.166 21.6667C14.172 26.7268 18.2726 30.8274 23.3327 30.8333H24.166V37.5H25.8327V30.8333H26.666C31.7261 30.8274 35.8267 26.7268 35.8327 21.6667C35.8327 21.2065 35.4596 20.8333 34.9993 20.8333ZM33.3327 10.8333H34.1202C33.691 14.6272 30.484 17.4954 26.666 17.5H25.8785C26.3077 13.7061 29.5147 10.8379 33.3327 10.8333ZM30.8327 1.66667H31.5968C31.187 4.07083 29.1049 5.83031 26.666 5.83333H25.9018C26.3117 3.42917 28.3938 1.66969 30.8327 1.66667ZM23.3327 5.83333C20.8938 5.83031 18.8117 4.07083 18.4018 1.66667H19.166C21.6049 1.66969 23.687 3.42917 24.0968 5.83333H23.3327ZM23.3327 17.5C19.5147 17.4954 16.3077 14.6272 15.8785 10.8333H16.666C20.484 10.8379 23.691 13.7061 24.1202 17.5H23.3327ZM23.3327 29.1667C19.5147 29.1621 16.3077 26.2939 15.8785 22.5H16.666C20.484 22.5046 23.691 25.3728 24.1202 29.1667H23.3327ZM26.666 29.1667H25.8785C26.3077 25.3728 29.5147 22.5046 33.3327 22.5H34.1202C33.691 26.2939 30.484 29.1621 26.666 29.1667Z" fill="white"/>
</g>
<defs>
<clipPath id="clip0">
<rect width="50" height="50" fill="white"/>
</clipPath>
</defs>
</svg>
