<svg width="45" height="45" viewBox="0 0 45 45" fill="none" xmlns="http://www.w3.org/2000/svg">
<circle cx="22.5" cy="22.5" r="22.5" fill="#404040"/>
<path d="M21.842 10.0038C19.7282 10.0294 15.1836 10.3767 12.6417 12.7087C10.7509 14.5822 10.0908 17.3521 10.0134 20.7772C9.9492 24.1899 9.87183 30.599 16.0495 32.344V35.002C16.0495 35.002 16.0109 36.0655 16.7138 36.2836C17.5798 36.5577 18.0728 35.7395 18.896 34.8604L20.4311 33.1244C24.658 33.4758 27.8954 32.6659 28.2683 32.5457C29.126 32.2716 33.9571 31.6542 34.7465 25.2444C35.5565 18.6246 34.3522 14.4538 32.1783 12.5671H32.1651C31.5091 11.9629 28.8725 10.0417 22.9821 10.0203C22.9821 10.0203 22.545 9.99066 21.842 10.003V10.0038ZM21.9145 11.865C22.5145 11.8609 22.8792 11.8864 22.8792 11.8864C27.865 11.8995 30.2447 13.4001 30.8061 13.9055C32.6368 15.4745 33.5801 19.2346 32.8895 24.7612C32.2334 30.1199 28.3152 30.459 27.59 30.6903C27.2814 30.7891 24.43 31.4921 20.8378 31.2608C20.8378 31.2608 18.1626 34.4891 17.3262 35.3205C17.1937 35.4662 17.039 35.509 16.9402 35.4876C16.7986 35.453 16.7558 35.2777 16.764 35.0374L16.7895 30.6261C11.5502 29.1774 11.8589 23.7109 11.9149 20.8554C11.9791 17.9999 12.515 15.6638 14.1102 14.0817C16.2578 12.1399 20.1167 11.8781 21.9128 11.865H21.9145ZM22.3096 14.7196C22.2664 14.7192 22.2237 14.7273 22.1837 14.7435C22.1437 14.7597 22.1073 14.7836 22.0767 14.8139C22.046 14.8442 22.0216 14.8803 22.0049 14.92C21.9882 14.9598 21.9796 15.0025 21.9795 15.0456C21.9795 15.23 22.1293 15.3757 22.3096 15.3757C23.1257 15.3602 23.9369 15.5064 24.6962 15.8059C25.4556 16.1054 26.1482 16.5523 26.734 17.1208C27.93 18.2822 28.5128 19.8429 28.535 21.8835C28.535 22.0637 28.6807 22.2136 28.8651 22.2136V22.2004C28.952 22.2006 29.0355 22.1665 29.0973 22.1054C29.1591 22.0443 29.1943 21.9613 29.1952 21.8744C29.2352 20.9139 29.0794 19.9554 28.7374 19.0569C28.3954 18.1585 27.8742 17.339 27.2056 16.6483C25.9026 15.3749 24.2514 14.7188 22.3096 14.7188V14.7196ZM17.9708 15.4745C17.7378 15.4404 17.5001 15.4872 17.2974 15.607H17.2801C16.8095 15.8829 16.3856 16.2315 16.024 16.64C15.7236 16.9874 15.5606 17.3389 15.5178 17.6772C15.4923 17.8789 15.5096 18.0805 15.5696 18.2732L15.591 18.2863C15.9294 19.2807 16.3714 20.2372 16.9114 21.1377C17.607 22.4028 18.463 23.5729 19.4582 24.6188L19.4878 24.6616L19.5347 24.6962L19.5644 24.7307L19.5989 24.7604C20.6486 25.7585 21.8215 26.6185 23.0891 27.3195C24.5378 28.1081 25.4169 28.481 25.9446 28.6357V28.644C26.0993 28.6909 26.2401 28.7123 26.3817 28.7123C26.8313 28.6794 27.257 28.4968 27.5909 28.1937C27.9975 27.8321 28.3423 27.4064 28.6116 26.9335V26.9252C28.8643 26.4495 28.7787 25.9992 28.414 25.6946C27.6837 25.0563 26.894 24.4893 26.0557 24.0014C25.4943 23.6969 24.9239 23.8813 24.6926 24.1899L24.1995 24.8114C23.9468 25.1201 23.4875 25.0773 23.4875 25.0773L23.4743 25.0855C20.0492 24.2105 19.1355 20.7426 19.1355 20.7426C19.1355 20.7426 19.0927 20.2709 19.4096 20.0306L20.027 19.5334C20.3225 19.293 20.5283 18.7234 20.2114 18.1612C19.7269 17.3217 19.1611 16.5318 18.5223 15.8029C18.3826 15.631 18.1867 15.5141 17.9691 15.4728L17.9708 15.4745ZM22.8792 16.4524C22.4421 16.4524 22.4421 17.1125 22.8833 17.1125C23.4268 17.1213 23.9633 17.2372 24.462 17.4534C24.9607 17.6697 25.4119 17.9821 25.7898 18.3728C26.1346 18.7531 26.3995 19.1987 26.5689 19.6832C26.7383 20.1678 26.8087 20.6814 26.776 21.1937C26.7775 21.2804 26.8129 21.363 26.8745 21.424C26.9362 21.4849 27.0193 21.5192 27.106 21.5196L27.1192 21.5369C27.2066 21.5363 27.2901 21.5013 27.3519 21.4395C27.4137 21.3778 27.4486 21.2942 27.4493 21.2069C27.4789 19.8989 27.0723 18.8016 26.2747 17.9225C25.4729 17.0434 24.3543 16.5503 22.9261 16.4524H22.8792ZM23.42 18.2271C22.9697 18.2139 22.9524 18.8872 23.3986 18.9004C24.4835 18.9564 25.0103 19.5046 25.0795 20.6323C25.081 20.7179 25.1159 20.7995 25.1768 20.8597C25.2378 20.9198 25.3198 20.9537 25.4054 20.9541H25.4186C25.4626 20.9523 25.5058 20.9416 25.5457 20.9229C25.5855 20.9041 25.6212 20.8776 25.6508 20.8449C25.6803 20.8121 25.7029 20.7739 25.7175 20.7323C25.732 20.6907 25.7382 20.6466 25.7355 20.6027C25.6581 19.1325 24.8564 18.3044 23.4332 18.2279H23.42V18.2271Z" fill="white"/>
</svg>
