<svg width="47" height="15" viewBox="0 0 47 15" fill="none" xmlns="http://www.w3.org/2000/svg">
<path d="M17.5759 0.262498L11.512 14.7725H7.5613L4.57864 3.1946C4.39811 2.48235 4.24113 2.22073 3.68995 1.92498C2.79079 1.43061 1.30818 0.971242 0 0.685994L0.0872122 0.262498H6.4537C7.26478 0.262498 7.99387 0.804118 8.17876 1.74124L9.75381 10.1368L13.647 0.262498H17.5759ZM33.0691 10.0362C33.0866 6.2072 27.7928 5.99633 27.8285 4.28571C27.8407 3.76509 28.3344 3.2121 29.4158 3.07035C29.9504 3.00035 31.4287 2.9461 33.1031 3.71959L33.7607 0.64312C32.6421 0.22179 31.4575 0.0040064 30.2626 0C26.5657 0 23.9633 1.97223 23.9424 4.79584C23.9153 6.88532 25.7974 8.04993 27.2154 8.7438C28.6728 9.45517 29.1611 9.91104 29.1559 10.5472C29.1446 11.521 27.9934 11.9472 26.9163 11.9664C25.036 11.9962 23.9441 11.4563 23.0746 11.0503L22.3978 14.2291C23.27 14.6316 24.8843 14.9825 26.557 15C30.4868 15 33.0569 13.0531 33.0691 10.0362ZM42.8369 14.7725H46.2966L43.2729 0.262498H40.0801C39.739 0.259454 39.4048 0.359249 39.1209 0.548954C38.8369 0.738659 38.6163 1.00953 38.4876 1.32649L32.879 14.7725H36.8035L37.5841 12.6051H42.3808L42.8369 14.7725ZM38.6629 9.6328L40.6322 4.18509L41.7659 9.6328H38.6629ZM22.9211 0.262498L19.8277 14.7699H16.0872L19.1814 0.262498H22.9211Z" fill="#8A8A8A"/>
</svg>
