<svg width="45" height="45" viewBox="0 0 45 45" fill="none" xmlns="http://www.w3.org/2000/svg">
<circle cx="22.5" cy="22.5" r="22.5" fill="#404040"/>
<circle cx="22.5" cy="22.5" r="11.5" stroke="white" stroke-width="2"/>
<path d="M29.6561 19.5418C29.7609 19.2292 29.6561 19 29.1605 19H27.5189C27.1012 19 26.9104 19.1983 26.8056 19.4161C26.8056 19.4161 25.9709 21.2437 24.7882 22.4287C24.4064 22.7735 24.232 22.8824 24.0239 22.8824C23.9199 22.8824 23.7686 22.7735 23.7686 22.4609V19.5418C23.7686 19.1667 23.6481 19 23.3 19H20.7205C20.46 19 20.3028 19.1734 20.3028 19.3388C20.3028 19.6937 20.8942 19.7757 20.9548 20.7758V22.9456C20.9548 23.4208 20.8597 23.5075 20.6501 23.5075C20.094 23.5075 18.7406 21.6732 17.9374 19.5733C17.7809 19.1654 17.623 19.0007 17.2038 19.0007H15.5629C15.0936 19.0007 15 19.199 15 19.4167C15 19.8079 15.5562 21.7437 17.5908 24.304C18.9472 26.0523 20.8567 27 22.5964 27C23.6391 27 23.7679 26.7896 23.7679 26.4267V25.1052C23.7679 24.6844 23.8675 24.5997 24.1976 24.5997C24.4401 24.5997 24.8578 24.71 25.8317 25.5522C26.944 26.551 27.1282 26.9993 27.7532 26.9993H29.3941C29.8627 26.9993 30.097 26.7889 29.9622 26.3735C29.8148 25.9602 29.2833 25.3586 28.5781 24.6468C28.1949 24.2408 27.6222 23.8039 27.4478 23.5854C27.2045 23.3038 27.2749 23.1795 27.4478 22.9294C27.4486 22.9301 29.448 20.4014 29.6561 19.5418V19.5418Z" fill="white"/>
</svg>
