<svg width="25" height="25" viewBox="0 0 25 25" fill="none" xmlns="http://www.w3.org/2000/svg">
<circle cx="12.5" cy="12.5" r="11.5" stroke="#824C4F" stroke-width="2"/>
<path d="M19.6561 9.54176C19.7609 9.22921 19.6561 9 19.1605 9H17.5189C17.1012 9 16.9104 9.19829 16.8056 9.41606C16.8056 9.41606 15.9709 11.2437 14.7882 12.4287C14.4064 12.7735 14.232 12.8824 14.0239 12.8824C13.9199 12.8824 13.7686 12.7735 13.7686 12.4609V9.54176C13.7686 9.16669 13.6481 9 13.3 9H10.7205C10.46 9 10.3028 9.17342 10.3028 9.33877C10.3028 9.69367 10.8942 9.77567 10.9548 10.7758V12.9456C10.9548 13.4208 10.8597 13.5075 10.6501 13.5075C10.094 13.5075 8.74056 11.6732 7.93735 9.57335C7.7809 9.16535 7.62296 9.00067 7.20376 9.00067H5.56292C5.09357 9.00067 5 9.19896 5 9.41674C5 9.80793 5.55618 11.7437 7.59077 14.304C8.94716 16.0523 10.8567 17 12.5964 17C13.6391 17 13.7679 16.7896 13.7679 16.4267V15.1052C13.7679 14.6844 13.8675 14.5997 14.1976 14.5997C14.4401 14.5997 14.8578 14.71 15.8317 15.5522C16.944 16.551 17.1282 16.9993 17.7532 16.9993H19.3941C19.8627 16.9993 20.097 16.7889 19.9622 16.3735C19.8148 15.9602 19.2833 15.3586 18.5781 14.6468C18.1949 14.2408 17.6222 13.8039 17.4478 13.5854C17.2045 13.3038 17.2749 13.1795 17.4478 12.9294C17.4486 12.9301 19.448 10.4014 19.6561 9.54176V9.54176Z" fill="#824C4F"/>
</svg>
