<svg width="45" height="45" viewBox="0 0 45 45" fill="none" xmlns="http://www.w3.org/2000/svg">
<circle cx="22.5" cy="22.5" r="22.5" fill="#404040"/>
<path d="M28.225 24.982C27.9117 24.8234 26.3859 24.0789 26.1008 23.9727C25.8156 23.8711 25.6086 23.818 25.4008 24.1312C25.1977 24.4367 24.5992 25.1359 24.4164 25.3398C24.2336 25.5437 24.0539 25.5594 23.7453 25.4211C23.432 25.2625 22.4312 24.9367 21.243 23.8711C20.3148 23.0453 19.6969 22.0281 19.5133 21.7148C19.3305 21.4055 19.493 21.2305 19.6477 21.0758C19.7898 20.9336 19.9609 20.718 20.1195 20.5305C20.2703 20.343 20.3188 20.2172 20.4289 20.0141C20.5305 19.7945 20.4781 19.6234 20.4008 19.4688C20.3234 19.3141 19.7008 17.7805 19.4406 17.1695C19.1922 16.5633 18.932 16.6406 18.7406 16.6406C18.5617 16.6242 18.3539 16.6242 18.1469 16.6242C17.9398 16.6242 17.6016 16.7016 17.3164 16.9984C17.0312 17.3117 16.2258 18.0602 16.2258 19.5742C16.2258 21.0922 17.3406 22.5609 17.4953 22.7805C17.6539 22.9836 19.6883 26.1086 22.8094 27.4516C23.5539 27.7648 24.132 27.9523 24.5836 28.107C25.3281 28.343 26.0078 28.3102 26.5445 28.2328C27.1383 28.1352 28.3836 27.4797 28.6445 26.7477C28.9094 26.0109 28.9094 25.4008 28.832 25.2625C28.7547 25.1203 28.5516 25.043 28.2383 24.9047L28.225 24.982ZM22.5648 32.6562H22.5484C20.7008 32.6562 18.8742 32.1555 17.2789 31.2195L16.9047 30.9961L12.9984 32.0133L14.0484 28.2125L13.7961 27.8219C12.7644 26.1815 12.2171 24.2831 12.2172 22.3453C12.2172 16.6734 16.8602 12.0469 22.5727 12.0469C25.3398 12.0469 27.9359 13.125 29.8891 15.0781C30.8526 16.0302 31.6168 17.1645 32.1373 18.415C32.6577 19.6656 32.9239 21.0072 32.9203 22.3617C32.9125 28.0297 28.2734 32.6562 22.5687 32.6562H22.5648ZM31.3742 13.593C28.9977 11.2977 25.8727 10 22.5484 10C15.6922 10 10.1094 15.5586 10.1055 22.3898C10.1055 24.5711 10.675 26.6992 11.7656 28.5828L10 35L16.6 33.2789C18.4284 34.2647 20.4721 34.7832 22.5492 34.7883H22.5531C29.4133 34.7883 34.9961 29.2297 35 22.3938C35 19.0859 33.7102 15.9727 31.3586 13.6328L31.3742 13.593Z" fill="white"/>
</svg>
