<svg width="25" height="25" viewBox="0 0 25 25" fill="none" xmlns="http://www.w3.org/2000/svg">
<path d="M18.225 14.982C17.9117 14.8234 16.3859 14.0789 16.1008 13.9727C15.8156 13.8711 15.6086 13.818 15.4008 14.1312C15.1977 14.4367 14.5992 15.1359 14.4164 15.3398C14.2336 15.5437 14.0539 15.5594 13.7453 15.4211C13.432 15.2625 12.4312 14.9367 11.243 13.8711C10.3148 13.0453 9.69687 12.0281 9.51328 11.7148C9.33047 11.4055 9.49297 11.2305 9.64766 11.0758C9.78984 10.9336 9.96094 10.718 10.1195 10.5305C10.2703 10.343 10.3188 10.2172 10.4289 10.0141C10.5305 9.79453 10.4781 9.62344 10.4008 9.46875C10.3234 9.31406 9.70078 7.78047 9.44062 7.16953C9.19219 6.56328 8.93203 6.64062 8.74062 6.64062C8.56172 6.62422 8.35391 6.62422 8.14688 6.62422C7.93984 6.62422 7.60156 6.70156 7.31641 6.99844C7.03125 7.31172 6.22578 8.06016 6.22578 9.57422C6.22578 11.0922 7.34062 12.5609 7.49531 12.7805C7.65391 12.9836 9.68828 16.1086 12.8094 17.4516C13.5539 17.7648 14.132 17.9523 14.5836 18.107C15.3281 18.343 16.0078 18.3102 16.5445 18.2328C17.1383 18.1352 18.3836 17.4797 18.6445 16.7477C18.9094 16.0109 18.9094 15.4008 18.832 15.2625C18.7547 15.1203 18.5516 15.043 18.2383 14.9047L18.225 14.982ZM12.5648 22.6562H12.5484C10.7008 22.6562 8.87422 22.1555 7.27891 21.2195L6.90469 20.9961L2.99844 22.0133L4.04844 18.2125L3.79609 17.8219C2.76442 16.1815 2.21711 14.2831 2.21719 12.3453C2.21719 6.67344 6.86016 2.04688 12.5727 2.04688C15.3398 2.04688 17.9359 3.125 19.8891 5.07812C20.8526 6.03015 21.6168 7.16452 22.1373 8.41505C22.6577 9.66557 22.9239 11.0072 22.9203 12.3617C22.9125 18.0297 18.2734 22.6562 12.5687 22.6562H12.5648ZM21.3742 3.59297C18.9977 1.29766 15.8727 0 12.5484 0C5.69219 0 0.109375 5.55859 0.105469 12.3898C0.105469 14.5711 0.675 16.6992 1.76562 18.5828L0 25L6.6 23.2789C8.42837 24.2647 10.4721 24.7832 12.5492 24.7883H12.5531C19.4133 24.7883 24.9961 19.2297 25 12.3938C25 9.08594 23.7102 5.97266 21.3586 3.63281L21.3742 3.59297Z" fill="#824C4F"/>
</svg>
